<?xml version="1.0" encoding="us-ascii" standalone="no"?><svg xmlns="http://www.w3.org/2000/svg" xmlns:xlink="http://www.w3.org/1999/xlink" contentStyleType="text/css" height="611.9792px" preserveAspectRatio="none" style="width:433px;height:611px;background:#FFFFFF;" version="1.1" viewBox="0 0 433 611" width="433.5938px" zoomAndPan="magnify"><defs/><g><!--cluster ?? ??--><g id="cluster_&#54788;&#51116; &#45800;&#44228;"><rect fill="none" height="113.6589" rx="3.2552" ry="3.2552" style="stroke:#181818;stroke-width:1.3020833333333333;" width="197.9167" x="115.8854" y="422.513"/><text fill="#000000" font-family="sans-serif" font-size="18.2292" font-weight="bold" lengthAdjust="spacing" textLength="74.2188" x="177.7344" y="442.0379">&#54788;&#51116; &#45800;&#44228;</text></g><!--entity s9--><g id="elem_s9"><rect fill="#F1F1F1" height="47.2616" rx="3.2552" ry="3.2552" style="stroke:#181818;stroke-width:0.6510416666666666;" width="156.25" x="136.7188" y="468.0859"/><text fill="#000000" font-family="sans-serif" font-size="18.2292" font-weight="bold" lengthAdjust="spacing" textLength="130.2083" x="149.7396" y="498.0275">&#54036;&#47196;&#50892; PID &#51312;&#50984;</text></g><!--entity s4_y--><g id="elem_s4_y"><rect fill="#F1F1F1" height="47.2616" rx="3.2552" ry="3.2552" style="stroke:#181818;stroke-width:0.6510416666666666;" width="179.6875" x="9.1146" y="9.1146"/><text fill="#000000" font-family="sans-serif" font-size="18.2292" font-weight="bold" lengthAdjust="spacing" textLength="153.6458" x="22.1354" y="39.0561">&#51452;&#54665; &#49549;&#46020; PID &#51312;&#50984;</text></g><!--entity s4_n--><g id="elem_s4_n"><rect fill="#F1F1F1" height="47.2616" rx="3.2552" ry="3.2552" style="stroke:#181818;stroke-width:0.6510416666666666;" width="191.4063" x="235.026" y="9.1146"/><text fill="#000000" font-family="sans-serif" font-size="18.2292" font-weight="bold" lengthAdjust="spacing" textLength="165.3646" x="248.0469" y="39.0561">&#51452;&#54665; &#54588;&#46300;&#54252;&#50892;&#46300; &#51312;&#50984;</text></g><!--entity s5--><g id="elem_s5"><rect fill="#F1F1F1" height="47.2616" rx="3.2552" ry="3.2552" style="stroke:#181818;stroke-width:0.6510416666666666;" width="117.1875" x="156.25" y="95.4427"/><text fill="#000000" font-family="sans-serif" font-size="18.2292" font-weight="bold" lengthAdjust="spacing" textLength="91.1458" x="169.2708" y="125.3843">&#51649;&#51652; &#53580;&#49828;&#53944;</text></g><!--entity s6--><g id="elem_s6"><rect fill="#F1F1F1" height="47.2616" rx="3.2552" ry="3.2552" style="stroke:#181818;stroke-width:0.6510416666666666;" width="123.6979" x="152.9948" y="181.7708"/><text fill="#000000" font-family="sans-serif" font-size="18.2292" font-weight="bold" lengthAdjust="spacing" textLength="97.6563" x="166.0156" y="211.7124">&#44221;&#47196; &#54253; &#51312;&#50984;</text></g><!--entity s7--><g id="elem_s7"><rect fill="#F1F1F1" height="47.2616" rx="3.2552" ry="3.2552" style="stroke:#181818;stroke-width:0.6510416666666666;" width="117.1875" x="156.25" y="268.0859"/><text fill="#000000" font-family="sans-serif" font-size="18.2292" font-weight="bold" lengthAdjust="spacing" textLength="91.1458" x="169.2708" y="298.0275">&#54924;&#51204; &#53580;&#49828;&#53944;</text></g><!--entity s8--><g id="elem_s8"><rect fill="#F1F1F1" height="47.2616" rx="3.2552" ry="3.2552" style="stroke:#181818;stroke-width:0.6510416666666666;" width="201.8229" x="113.9323" y="354.4141"/><text fill="#000000" font-family="sans-serif" font-size="18.2292" font-weight="bold" lengthAdjust="spacing" textLength="175.7813" x="126.9531" y="384.3556">&#47196;&#52972;&#46972;&#51060;&#51228;&#51060;&#49496; &#53580;&#49828;&#53944;</text></g><!--entity s10--><g id="elem_s10"><rect fill="#F1F1F1" height="47.2616" rx="3.2552" ry="3.2552" style="stroke:#181818;stroke-width:0.6510416666666666;" width="151.0417" x="139.3229" y="557.0052"/><text fill="#000000" font-family="sans-serif" font-size="18.2292" font-weight="bold" lengthAdjust="spacing" textLength="125" x="152.3438" y="586.9468">&#49828;&#54540;&#46972;&#51064; &#53580;&#49828;&#53944;</text></g><!--link s4_y to s5--><g id="link_s4_y_s5"><path d="M130.625,56.9271 C146.9792,68.737 160.543,78.5358 176.8842,90.3457 " fill="none" id="s4_y-to-s5" style="stroke:#181818;stroke-width:1.3020833333333333;"/><polygon fill="#181818" points="183.2161,94.9219,176.769,83.8363,177.9395,91.1084,170.6674,92.2789,183.2161,94.9219" style="stroke:#181818;stroke-width:1.3020833333333333;"/></g><!--link s4_n to s5--><g id="link_s4_n_s5"><path d="M299.0625,56.9271 C282.7083,68.737 269.1445,78.5358 252.8033,90.3457 " fill="none" id="s4_n-to-s5" style="stroke:#181818;stroke-width:1.3020833333333333;"/><polygon fill="#181818" points="246.4714,94.9219,259.0201,92.2789,251.748,91.1084,252.9185,83.8363,246.4714,94.9219" style="stroke:#181818;stroke-width:1.3020833333333333;"/></g><!--link s5 to s6--><g id="link_s5_s6"><path d="M214.8438,143.2552 C214.8438,155.0651 214.8438,161.6276 214.8438,173.4375 " fill="none" id="s5-to-s6" style="stroke:#181818;stroke-width:1.3020833333333333;"/><polygon fill="#181818" points="214.8438,181.25,220.0521,169.5312,214.8438,174.7396,209.6354,169.5312,214.8438,181.25" style="stroke:#181818;stroke-width:1.3020833333333333;"/></g><!--link s6 to s7--><g id="link_s6_s7"><path d="M214.8438,229.5703 C214.8438,241.3932 214.8438,247.9427 214.8438,259.7526 " fill="none" id="s6-to-s7" style="stroke:#181818;stroke-width:1.3020833333333333;"/><polygon fill="#181818" points="214.8438,267.5651,220.0521,255.8464,214.8438,261.0547,209.6354,255.8464,214.8438,267.5651" style="stroke:#181818;stroke-width:1.3020833333333333;"/></g><!--link s7 to s8--><g id="link_s7_s8"><path d="M214.8438,315.8984 C214.8438,327.7083 214.8438,334.2708 214.8438,346.0807 " fill="none" id="s7-to-s8" style="stroke:#181818;stroke-width:1.3020833333333333;"/><polygon fill="#181818" points="214.8438,353.8932,220.0521,342.1745,214.8438,347.3828,209.6354,342.1745,214.8438,353.8932" style="stroke:#181818;stroke-width:1.3020833333333333;"/></g><!--link s8 to s9--><g id="link_s8_s9"><path d="M214.8438,401.8229 C214.8438,420.9635 214.8438,440.5339 214.8438,459.7786 " fill="none" id="s8-to-s9" style="stroke:#181818;stroke-width:1.3020833333333333;"/><polygon fill="#181818" points="214.8438,467.5911,220.0521,455.8724,214.8438,461.0807,209.6354,455.8724,214.8438,467.5911" style="stroke:#181818;stroke-width:1.3020833333333333;"/></g><!--link s9 to s10--><g id="link_s9_s10"><path d="M214.8438,515.6901 C214.8438,528.2812 214.8438,536.0807 214.8438,548.6979 " fill="none" id="s9-to-s10" style="stroke:#181818;stroke-width:1.3020833333333333;"/><polygon fill="#181818" points="214.8438,556.5104,220.0521,544.7917,214.8438,550,209.6354,544.7917,214.8438,556.5104" style="stroke:#181818;stroke-width:1.3020833333333333;"/></g><!--SRC=[AyxEp2j8B4hCLIXApCikJYrGC3RWAeOBfXHaAXWQcN8LfIQN9EQbvwGgADaasRrPlEVjj4w5Dsszh_jR508yNHJUBDpmPiuA6_qaEoM5n6A5OfFuIknwtaxPythodBVzQzxCxW4oi6ZCGzUulF7DyXQ5jwqzRxgMlEtQWL2BxgnNc_Q-NZX7uMt_MWnZpT2KlftLysO1LaFDqLG2JNopUythkNlUpDtoPi4S4Daw0vj62sIDRsUql9ctHk5rzufNcrkK5AhHhU-P0Z9tTW_MmBFagaKF0w1TKth0ZjY1pMv30ouk3L2WQohewjefQ1IRQeBvUIXyKnZF3CGpW_7CGJnp6Cy2nBE0yIn1F4iOpz104m00]--></g></svg>