<?xml version="1.0" encoding="us-ascii" standalone="no"?><svg xmlns="http://www.w3.org/2000/svg" xmlns:xlink="http://www.w3.org/1999/xlink" contentStyleType="text/css" height="238px" preserveAspectRatio="none" style="width:425px;height:238px;background:#FFFFFF;" version="1.1" viewBox="0 0 425 238" width="425px" zoomAndPan="magnify"><defs/><g><!--cluster checkout--><g id="cluster_checkout"><rect fill="none" height="196" rx="2.5" ry="2.5" style="stroke:#181818;stroke-width:1.0;" width="157.68" x="173" y="7"/><text fill="#000000" font-family="sans-serif" font-size="14" font-weight="bold" lengthAdjust="spacing" textLength="73" x="215.34" y="21.9951">checkout</text></g><g id="elem_payment"><ellipse cx="251.8402" cy="65.0038" fill="#F1F1F1" rx="54.8402" ry="14.7338" style="stroke:#181818;stroke-width:0.5;"/><text fill="#000000" font-family="sans-serif" font-size="14" lengthAdjust="spacing" textLength="60" x="218.8402" y="68.7514">payment</text></g><g id="elem_help"><ellipse cx="251.8385" cy="129.0036" fill="#F1F1F1" rx="32.6985" ry="14.5236" style="stroke:#181818;stroke-width:0.5;"/><text fill="#000000" font-family="sans-serif" font-size="14" lengthAdjust="spacing" textLength="30" x="236.8109" y="131.861">help</text></g><!--entity customer--><g id="elem_customer"><ellipse cx="39" cy="165.35" fill="#F1F1F1" rx="8" ry="8" style="stroke:#181818;stroke-width:0.5;"/><path d="M39,173.35 L39,200.35 M26,181.35 L52,181.35 M39,200.35 L26,215.35 M39,200.35 L52,215.35 " fill="none" style="stroke:#181818;stroke-width:0.5;"/><text fill="#000000" font-family="sans-serif" font-size="14" lengthAdjust="spacing" textLength="66" x="6" y="229.8451">customer</text></g><!--entity clerk--><g id="elem_clerk"><ellipse cx="402.18" cy="165.35" fill="#F1F1F1" rx="8" ry="8" style="stroke:#181818;stroke-width:0.5;"/><path d="M402.18,173.35 L402.18,200.35 M389.18,181.35 L415.18,181.35 M402.18,200.35 L389.18,215.35 M402.18,200.35 L415.18,215.35 " fill="none" style="stroke:#181818;stroke-width:0.5;"/><text fill="#000000" font-family="sans-serif" font-size="14" lengthAdjust="spacing" textLength="33" x="385.68" y="229.8451">clerk</text></g><!--link customer to checkout--><g id="link_customer_checkout"><path d="M72.48,195 C87.035,195 105.2281,195 124.3872,195 C133.9667,195 143.7877,195 153.5162,195 C158.3804,195 163.2216,195 167.9978,195 C169.1918,195 170.3818,195 171.5671,195 C171.8634,195 172.1595,195 172.4552,195 " fill="none" id="customer-checkout" style="stroke:#181818;stroke-width:1.0;"/></g><!--link checkout to payment--><g id="link_checkout_payment"><path d="M172.5263,177.1822 C171.9847,176.9952 171.4442,176.8065 170.905,176.6163 C136.3975,164.4375 107.285,145.455 123.06,117.5 C138.6,89.95 166.0946,78.1137 194.9646,71.8937 " fill="none" id="checkout-to-payment" style="stroke:#181818;stroke-width:1.0;stroke-dasharray:7.0,7.0;"/><polygon fill="#181818" points="200.83,70.63,191.1894,68.6153,195.9422,71.6831,192.8743,76.4358,200.83,70.63" style="stroke:#181818;stroke-width:1.0;"/><text fill="#000000" font-family="sans-serif" font-size="13" lengthAdjust="spacing" textLength="45" x="103" y="130.5669">include</text></g><!--link help to checkout--><g id="link_help_checkout"><path d="M251.84,143.9 C251.84,161.6 251.84,183.39 251.84,188.26 " fill="none" id="help-to-checkout" style="stroke:#181818;stroke-width:1.0;stroke-dasharray:7.0,7.0;"/><polygon fill="#181818" points="251.84,194.26,255.84,185.26,251.84,189.26,247.84,185.26,251.84,194.26" style="stroke:#181818;stroke-width:1.0;"/><text fill="#000000" font-family="sans-serif" font-size="13" lengthAdjust="spacing" textLength="51" x="214.84" y="173.6469">extends</text></g><!--link checkout to clerk--><g id="link_checkout_clerk"><path d="M331.1765,195 C331.4024,195 331.6281,195 331.8539,195 C332.3053,195 332.7565,195 333.2074,195 C335.0111,195 336.8098,195 338.5992,195 C342.1782,195 345.7202,195 349.1909,195 C363.0737,195 375.815,195 385.21,195 " fill="none" id="checkout-clerk" style="stroke:#181818;stroke-width:1.0;"/></g><!--SRC=[LOvB3i8m34JtFSKiOL4Eq0MNu0IHQveeNxcEH8MuEwcgjh0SlpSZ1tugD4FSP1MZ4oPrENMpTwaOCH75a3SJFtG9Z1MRD0N-4M9EcQpao52ft1dIBA0wQpl97WEBxuuwo3BvN1Nl3eUBliTb9zS6pe3R7PTYbiYfXG4kKQWZhuxbK3P-sWFufPp6-N-axM-FVBu0]--></g></svg>