<?xml version="1.0" encoding="us-ascii" standalone="no"?><svg xmlns="http://www.w3.org/2000/svg" xmlns:xlink="http://www.w3.org/1999/xlink" contentStyleType="text/css" height="957.0313px" preserveAspectRatio="none" style="width:503px;height:957px;background:#FFFFFF;" version="1.1" viewBox="0 0 503 957" width="503.9062px" zoomAndPan="magnify"><defs/><g><!--cluster ??? ??--><g id="cluster_&#50644;&#53076;&#45908; &#49324;&#50857;"><rect fill="none" height="113.6589" rx="3.2552" ry="3.2552" style="stroke:#181818;stroke-width:1.3020833333333333;" width="221.3542" x="9.1146" y="249.8698"/><text fill="#000000" font-family="sans-serif" font-size="18.2292" font-weight="bold" lengthAdjust="spacing" textLength="91.1458" x="74.2188" y="269.3947">&#50644;&#53076;&#45908; &#49324;&#50857;</text></g><!--cluster ??? ???--><g id="cluster_&#50644;&#53076;&#45908; &#48120;&#49324;&#50857;"><rect fill="none" height="113.6589" rx="3.2552" ry="3.2552" style="stroke:#181818;stroke-width:1.3020833333333333;" width="234.375" x="261.7188" y="249.8698"/><text fill="#000000" font-family="sans-serif" font-size="18.2292" font-weight="bold" lengthAdjust="spacing" textLength="108.0729" x="324.8698" y="269.3947">&#50644;&#53076;&#45908; &#48120;&#49324;&#50857;</text></g><!--entity s4_y--><g id="elem_s4_y"><rect fill="#F1F1F1" height="47.2616" rx="3.2552" ry="3.2552" style="stroke:#181818;stroke-width:0.6510416666666666;" width="179.6875" x="29.9479" y="295.4427"/><text fill="#000000" font-family="sans-serif" font-size="18.2292" font-weight="bold" lengthAdjust="spacing" textLength="153.6458" x="42.9688" y="325.3843">&#51452;&#54665; &#49549;&#46020; PID &#51312;&#50984;</text></g><!--entity s4_n--><g id="elem_s4_n"><rect fill="#F1F1F1" height="47.2616" rx="3.2552" ry="3.2552" style="stroke:#181818;stroke-width:0.6510416666666666;" width="191.4063" x="283.2031" y="295.4427"/><text fill="#000000" font-family="sans-serif" font-size="18.2292" font-weight="bold" lengthAdjust="spacing" textLength="165.3646" x="296.224" y="325.3843">&#51452;&#54665; &#54588;&#46300;&#54252;&#50892;&#46300; &#51312;&#50984;</text></g><!--entity s1--><g id="elem_s1"><rect fill="#F1F1F1" height="47.2616" rx="3.2552" ry="3.2552" style="stroke:#181818;stroke-width:0.6510416666666666;" width="174.4792" x="161.4583" y="9.1146"/><text fill="#000000" font-family="sans-serif" font-size="18.2292" font-weight="bold" lengthAdjust="spacing" textLength="148.4375" x="174.4792" y="39.0561">&#46300;&#46972;&#51060;&#48652; &#49345;&#49688; &#49444;&#51221;</text></g><!--entity s2--><g id="elem_s2"><rect fill="#F1F1F1" height="47.2616" rx="3.2552" ry="3.2552" style="stroke:#181818;stroke-width:0.6510416666666666;" width="123.6979" x="186.849" y="95.4427"/><text fill="#000000" font-family="sans-serif" font-size="18.2292" font-weight="bold" lengthAdjust="spacing" textLength="97.6563" x="199.8698" y="125.3843">&#45936;&#46300; &#55072; &#49444;&#51221;</text></g><!--entity s3--><g id="elem_s3"><rect fill="#F1F1F1" height="47.2616" rx="3.2552" ry="3.2552" style="stroke:#181818;stroke-width:0.6510416666666666;" width="201.8229" x="147.7865" y="181.7708"/><text fill="#000000" font-family="sans-serif" font-size="18.2292" font-weight="bold" lengthAdjust="spacing" textLength="175.7813" x="160.8073" y="211.7124">&#47196;&#52972;&#46972;&#51060;&#51228;&#51060;&#49496; &#53580;&#49828;&#53944;</text></g><!--entity s5--><g id="elem_s5"><rect fill="#F1F1F1" height="47.2616" rx="3.2552" ry="3.2552" style="stroke:#181818;stroke-width:0.6510416666666666;" width="117.1875" x="190.1042" y="384.362"/><text fill="#000000" font-family="sans-serif" font-size="18.2292" font-weight="bold" lengthAdjust="spacing" textLength="91.1458" x="203.125" y="414.3035">&#51649;&#51652; &#53580;&#49828;&#53944;</text></g><!--entity s6--><g id="elem_s6"><rect fill="#F1F1F1" height="47.2616" rx="3.2552" ry="3.2552" style="stroke:#181818;stroke-width:0.6510416666666666;" width="123.6979" x="186.849" y="470.6901"/><text fill="#000000" font-family="sans-serif" font-size="18.2292" font-weight="bold" lengthAdjust="spacing" textLength="97.6563" x="199.8698" y="500.6317">&#44221;&#47196; &#54253; &#51312;&#50984;</text></g><!--entity s7--><g id="elem_s7"><rect fill="#F1F1F1" height="47.2616" rx="3.2552" ry="3.2552" style="stroke:#181818;stroke-width:0.6510416666666666;" width="117.1875" x="190.1042" y="557.0182"/><text fill="#000000" font-family="sans-serif" font-size="18.2292" font-weight="bold" lengthAdjust="spacing" textLength="91.1458" x="203.125" y="586.9598">&#54924;&#51204; &#53580;&#49828;&#53944;</text></g><!--entity s8--><g id="elem_s8"><rect fill="#F1F1F1" height="47.2616" rx="3.2552" ry="3.2552" style="stroke:#181818;stroke-width:0.6510416666666666;" width="201.8229" x="147.7865" y="643.3333"/><text fill="#000000" font-family="sans-serif" font-size="18.2292" font-weight="bold" lengthAdjust="spacing" textLength="175.7813" x="160.8073" y="673.2749">&#47196;&#52972;&#46972;&#51060;&#51228;&#51060;&#49496; &#53580;&#49828;&#53944;</text></g><!--entity s9--><g id="elem_s9"><rect fill="#F1F1F1" height="47.2616" rx="3.2552" ry="3.2552" style="stroke:#181818;stroke-width:0.6510416666666666;" width="156.25" x="170.5729" y="729.6615"/><text fill="#000000" font-family="sans-serif" font-size="18.2292" font-weight="bold" lengthAdjust="spacing" textLength="130.2083" x="183.5938" y="759.603">&#54036;&#47196;&#50892; PID &#51312;&#50984;</text></g><!--entity s10--><g id="elem_s10"><rect fill="#F1F1F1" height="47.2616" rx="3.2552" ry="3.2552" style="stroke:#181818;stroke-width:0.6510416666666666;" width="151.0417" x="173.1771" y="815.9896"/><text fill="#000000" font-family="sans-serif" font-size="18.2292" font-weight="bold" lengthAdjust="spacing" textLength="125" x="186.1979" y="845.9311">&#49828;&#54540;&#46972;&#51064; &#53580;&#49828;&#53944;</text></g><!--entity s11--><g id="elem_s11"><rect fill="#F1F1F1" height="47.2616" rx="3.2552" ry="3.2552" style="stroke:#181818;stroke-width:0.6510416666666666;" width="59.8958" x="218.75" y="902.3047"/><text fill="#000000" font-family="sans-serif" font-size="18.2292" font-weight="bold" lengthAdjust="spacing" textLength="33.8542" x="231.7708" y="932.2462">&#50756;&#47308;</text></g><!--link s1 to s2--><g id="link_s1_s2"><path d="M248.6979,56.9271 C248.6979,68.737 248.6979,75.2995 248.6979,87.1094 " fill="none" id="s1-to-s2" style="stroke:#181818;stroke-width:1.3020833333333333;"/><polygon fill="#181818" points="248.6979,94.9219,253.9062,83.2031,248.6979,88.4115,243.4896,83.2031,248.6979,94.9219" style="stroke:#181818;stroke-width:1.3020833333333333;"/></g><!--link s2 to s3--><g id="link_s2_s3"><path d="M248.6979,143.2552 C248.6979,155.0651 248.6979,161.6276 248.6979,173.4375 " fill="none" id="s2-to-s3" style="stroke:#181818;stroke-width:1.3020833333333333;"/><polygon fill="#181818" points="248.6979,181.25,253.9062,169.5312,248.6979,174.7396,243.4896,169.5312,248.6979,181.25" style="stroke:#181818;stroke-width:1.3020833333333333;"/></g><!--link s3 to s4_y--><g id="link_s3_s4_y"><path d="M222.6172,229.1797 C200.3906,248.3203 174.5393,270.6046 152.1955,289.8494 " fill="none" id="s3-to-s4_y" style="stroke:#181818;stroke-width:1.3020833333333333;"/><polygon fill="#181818" points="146.276,294.9479,158.5543,291.2465,151.209,290.6992,151.7563,283.3538,146.276,294.9479" style="stroke:#181818;stroke-width:1.3020833333333333;"/></g><!--link s3 to s4_n--><g id="link_s3_s4_n"><path d="M275.0521,229.1797 C297.487,248.3203 323.6535,270.6318 346.2056,289.8766 " fill="none" id="s3-to-s4_n" style="stroke:#181818;stroke-width:1.3020833333333333;"/><polygon fill="#181818" points="352.1484,294.9479,346.6151,283.3791,347.1961,290.7218,339.8533,291.3029,352.1484,294.9479" style="stroke:#181818;stroke-width:1.3020833333333333;"/></g><!--link s4_y to s5--><g id="link_s4_y_s5"><path d="M153.9974,343.2812 C172.7995,355.8594 189.5387,367.0701 208.2887,379.6352 " fill="none" id="s4_y-to-s5" style="stroke:#181818;stroke-width:1.3020833333333333;"/><polygon fill="#181818" points="214.7786,383.9844,207.9431,373.134,209.3703,380.3601,202.1442,381.7872,214.7786,383.9844" style="stroke:#181818;stroke-width:1.3020833333333333;"/></g><!--link s4_n to s5--><g id="link_s4_n_s5"><path d="M344.349,343.2812 C325.3646,355.8594 308.4117,367.1012 289.4664,379.6663 " fill="none" id="s4_n-to-s5" style="stroke:#181818;stroke-width:1.3020833333333333;"/><polygon fill="#181818" points="282.9557,383.9844,295.6005,381.8477,288.3813,380.386,289.8431,373.1668,282.9557,383.9844" style="stroke:#181818;stroke-width:1.3020833333333333;"/></g><!--link s5 to s6--><g id="link_s5_s6"><path d="M248.6979,432.1745 C248.6979,443.9844 248.6979,450.5469 248.6979,462.3568 " fill="none" id="s5-to-s6" style="stroke:#181818;stroke-width:1.3020833333333333;"/><polygon fill="#181818" points="248.6979,470.1693,253.9062,458.4505,248.6979,463.6589,243.4896,458.4505,248.6979,470.1693" style="stroke:#181818;stroke-width:1.3020833333333333;"/></g><!--link s6 to s7--><g id="link_s6_s7"><path d="M248.6979,518.5026 C248.6979,530.3125 248.6979,536.875 248.6979,548.6849 " fill="none" id="s6-to-s7" style="stroke:#181818;stroke-width:1.3020833333333333;"/><polygon fill="#181818" points="248.6979,556.4974,253.9062,544.7786,248.6979,549.987,243.4896,544.7786,248.6979,556.4974" style="stroke:#181818;stroke-width:1.3020833333333333;"/></g><!--link s7 to s8--><g id="link_s7_s8"><path d="M248.6979,604.8177 C248.6979,616.6406 248.6979,623.1901 248.6979,635 " fill="none" id="s7-to-s8" style="stroke:#181818;stroke-width:1.3020833333333333;"/><polygon fill="#181818" points="248.6979,642.8125,253.9062,631.0937,248.6979,636.3021,243.4896,631.0937,248.6979,642.8125" style="stroke:#181818;stroke-width:1.3020833333333333;"/></g><!--link s8 to s9--><g id="link_s8_s9"><path d="M248.6979,691.1458 C248.6979,702.9557 248.6979,709.5182 248.6979,721.3281 " fill="none" id="s8-to-s9" style="stroke:#181818;stroke-width:1.3020833333333333;"/><polygon fill="#181818" points="248.6979,729.1406,253.9062,717.4219,248.6979,722.6302,243.4896,717.4219,248.6979,729.1406" style="stroke:#181818;stroke-width:1.3020833333333333;"/></g><!--link s9 to s10--><g id="link_s9_s10"><path d="M248.6979,777.474 C248.6979,789.2839 248.6979,795.8464 248.6979,807.6562 " fill="none" id="s9-to-s10" style="stroke:#181818;stroke-width:1.3020833333333333;"/><polygon fill="#181818" points="248.6979,815.4687,253.9062,803.75,248.6979,808.9583,243.4896,803.75,248.6979,815.4687" style="stroke:#181818;stroke-width:1.3020833333333333;"/></g><!--link s10 to s11--><g id="link_s10_s11"><path d="M248.6979,863.7891 C248.6979,875.612 248.6979,882.1615 248.6979,893.9714 " fill="none" id="s10-to-s11" style="stroke:#181818;stroke-width:1.3020833333333333;"/><polygon fill="#181818" points="248.6979,901.7839,253.9062,890.0651,248.6979,895.2734,243.4896,890.0651,248.6979,901.7839" style="stroke:#181818;stroke-width:1.3020833333333333;"/></g><!--SRC=[dPBFIW9H5CRtynG7LxgG7AVn3uYhDkrwWnXBGgn1Pjf4jB36ABdYegdCHXXHiC18eiL0-aBTSz-XUzF9l0u4RGxy3j_tdNF_sDMAMJCiumWimwpQvHfeASN-QUxNAg2cTKMnodl7XdbmM8POeLIaDnxjJR7tJWC2U577gmwWCqJ_jh1HAiR0iC5MPKzhmct0F7zDcfQbVGy_nlC9w7kYDZh06WIRGzOCbaPDCkAeZYCdIgbBoi-t6Py2hFq2s9-WzxIKPYGfwnBq8qEp_zqx9uyWhl0-4jZPtbfRA2-VagUvv7jC49MkfcJ3WqC7v9TWvMtmtiMPIrikuFaOkyynE0KvO31bTzU0botQTY9ttDmzKSwYK-bhy5SmSwVyRx3sc5-1-2JhwIPFL-Asce1aiWXnEvrGH5cG9aWBYUyYiIbOj1STVSxc2kiXPGHbGieAoeQK4vGBAIye7vAQ4iXho6hY2m00]--></g></svg>