<?xml version="1.0" encoding="us-ascii" standalone="no"?><svg xmlns="http://www.w3.org/2000/svg" xmlns:xlink="http://www.w3.org/1999/xlink" contentStyleType="text/css" height="927.0833px" preserveAspectRatio="none" style="width:369px;height:927px;background:#FFFFFF;" version="1.1" viewBox="0 0 369 927" width="369.7917px" zoomAndPan="magnify"><defs/><g><!--entity s1--><g id="elem_s1"><rect fill="#F1F1F1" height="47.2616" rx="3.2552" ry="3.2552" style="stroke:#181818;stroke-width:0.6510416666666666;" width="174.4792" x="78.776" y="9.1146"/><text fill="#000000" font-family="sans-serif" font-size="18.2292" font-weight="bold" lengthAdjust="spacing" textLength="148.4375" x="91.7969" y="39.0561">&#46300;&#46972;&#51060;&#48652; &#49345;&#49688; &#49444;&#51221;</text></g><!--entity s2--><g id="elem_s2"><rect fill="#F1F1F1" height="47.2616" rx="3.2552" ry="3.2552" style="stroke:#181818;stroke-width:0.6510416666666666;" width="123.6979" x="104.1667" y="95.4427"/><text fill="#000000" font-family="sans-serif" font-size="18.2292" font-weight="bold" lengthAdjust="spacing" textLength="97.6563" x="117.1875" y="125.3843">&#45936;&#46300; &#55072; &#49444;&#51221;</text></g><!--entity s3--><g id="elem_s3"><rect fill="#F1F1F1" height="47.2616" rx="3.2552" ry="3.2552" style="stroke:#181818;stroke-width:0.6510416666666666;" width="201.8229" x="65.1042" y="181.7708"/><text fill="#000000" font-family="sans-serif" font-size="18.2292" font-weight="bold" lengthAdjust="spacing" textLength="175.7813" x="78.125" y="211.7124">&#47196;&#52972;&#46972;&#51060;&#51228;&#51060;&#49496; &#53580;&#49828;&#53944;</text></g><!--entity s4_y--><g id="elem_s4_y"><rect fill="#F1F1F1" height="47.2616" rx="3.2552" ry="3.2552" style="stroke:#181818;stroke-width:0.6510416666666666;" width="115.8854" x="9.1146" y="268.099"/><text fill="#000000" font-family="sans-serif" font-size="18.2292" lengthAdjust="spacing" textLength="89.8438" x="22.1354" y="298.0405">&#51064;&#53076;&#45908; &#49324;&#50857;</text></g><!--entity s4_n--><g id="elem_s4_n"><rect fill="#F1F1F1" height="47.2616" rx="3.2552" ry="3.2552" style="stroke:#181818;stroke-width:0.6510416666666666;" width="191.4063" x="170.5729" y="268.099"/><text fill="#000000" font-family="sans-serif" font-size="18.2292" font-weight="bold" lengthAdjust="spacing" textLength="165.3646" x="183.5938" y="298.0405">&#51452;&#54665; &#54588;&#46300;&#54252;&#50892;&#46300; &#51312;&#50984;</text></g><!--entity s5--><g id="elem_s5"><rect fill="#F1F1F1" height="47.2616" rx="3.2552" ry="3.2552" style="stroke:#181818;stroke-width:0.6510416666666666;" width="117.1875" x="107.4219" y="354.4141"/><text fill="#000000" font-family="sans-serif" font-size="18.2292" font-weight="bold" lengthAdjust="spacing" textLength="91.1458" x="120.4427" y="384.3556">&#51649;&#51652; &#53580;&#49828;&#53944;</text></g><!--entity s6--><g id="elem_s6"><rect fill="#F1F1F1" height="47.2616" rx="3.2552" ry="3.2552" style="stroke:#181818;stroke-width:0.6510416666666666;" width="123.6979" x="104.1667" y="440.7422"/><text fill="#000000" font-family="sans-serif" font-size="18.2292" font-weight="bold" lengthAdjust="spacing" textLength="97.6563" x="117.1875" y="470.6837">&#44221;&#47196; &#54253; &#51312;&#50984;</text></g><!--entity s7--><g id="elem_s7"><rect fill="#F1F1F1" height="47.2616" rx="3.2552" ry="3.2552" style="stroke:#181818;stroke-width:0.6510416666666666;" width="117.1875" x="107.4219" y="527.0703"/><text fill="#000000" font-family="sans-serif" font-size="18.2292" font-weight="bold" lengthAdjust="spacing" textLength="91.1458" x="120.4427" y="557.0119">&#54924;&#51204; &#53580;&#49828;&#53944;</text></g><!--entity s8--><g id="elem_s8"><rect fill="#F1F1F1" height="47.2616" rx="3.2552" ry="3.2552" style="stroke:#181818;stroke-width:0.6510416666666666;" width="201.8229" x="65.1042" y="613.3854"/><text fill="#000000" font-family="sans-serif" font-size="18.2292" font-weight="bold" lengthAdjust="spacing" textLength="175.7813" x="78.125" y="643.327">&#47196;&#52972;&#46972;&#51060;&#51228;&#51060;&#49496; &#53580;&#49828;&#53944;</text></g><!--entity s9--><g id="elem_s9"><rect fill="#F1F1F1" height="47.2616" rx="3.2552" ry="3.2552" style="stroke:#181818;stroke-width:0.6510416666666666;" width="156.25" x="87.8906" y="699.7135"/><text fill="#000000" font-family="sans-serif" font-size="18.2292" font-weight="bold" lengthAdjust="spacing" textLength="130.2083" x="100.9115" y="729.6551">&#54036;&#47196;&#50892; PID &#51312;&#50984;</text></g><!--entity s10--><g id="elem_s10"><rect fill="#F1F1F1" height="47.2616" rx="3.2552" ry="3.2552" style="stroke:#181818;stroke-width:0.6510416666666666;" width="151.0417" x="90.4948" y="786.0417"/><text fill="#000000" font-family="sans-serif" font-size="18.2292" font-weight="bold" lengthAdjust="spacing" textLength="125" x="103.5156" y="815.9832">&#49828;&#54540;&#46972;&#51064; &#53580;&#49828;&#53944;</text></g><!--entity s11--><g id="elem_s11"><rect fill="#F1F1F1" height="47.2616" rx="3.2552" ry="3.2552" style="stroke:#181818;stroke-width:0.6510416666666666;" width="59.8958" x="136.0677" y="872.3568"/><text fill="#000000" font-family="sans-serif" font-size="18.2292" font-weight="bold" lengthAdjust="spacing" textLength="33.8542" x="149.0885" y="902.2983">&#50756;&#47308;</text></g><!--link s1 to s2--><g id="link_s1_s2"><path d="M166.0156,56.9271 C166.0156,68.737 166.0156,75.2995 166.0156,87.1094 " fill="none" id="s1-to-s2" style="stroke:#181818;stroke-width:1.3020833333333333;"/><polygon fill="#181818" points="166.0156,94.9219,171.224,83.2031,166.0156,88.4115,160.8073,83.2031,166.0156,94.9219" style="stroke:#181818;stroke-width:1.3020833333333333;"/></g><!--link s2 to s3--><g id="link_s2_s3"><path d="M166.0156,143.2552 C166.0156,155.0651 166.0156,161.6276 166.0156,173.4375 " fill="none" id="s2-to-s3" style="stroke:#181818;stroke-width:1.3020833333333333;"/><polygon fill="#181818" points="166.0156,181.25,171.224,169.5312,166.0156,174.7396,160.8073,169.5312,166.0156,181.25" style="stroke:#181818;stroke-width:1.3020833333333333;"/></g><!--link s3 to s4_y--><g id="link_s3_s4_y"><path d="M138.9714,229.5833 C125.013,241.3932 113.985,250.7221 100.0267,262.532 " fill="none" id="s3-to-s4_y" style="stroke:#181818;stroke-width:1.3020833333333333;"/><polygon fill="#181818" points="94.0625,267.5781,106.3729,263.985,99.0326,263.373,99.6446,256.0328,94.0625,267.5781" style="stroke:#181818;stroke-width:1.3020833333333333;"/></g><!--link s3 to s4_n--><g id="link_s3_s4_n"><path d="M193.4115,229.5833 C207.5651,241.3932 218.7693,250.7603 232.91,262.5702 " fill="none" id="s3-to-s4_n" style="stroke:#181818;stroke-width:1.3020833333333333;"/><polygon fill="#181818" points="238.9062,267.5781,233.2504,256.0687,233.9093,263.4048,226.5732,264.0637,238.9062,267.5781" style="stroke:#181818;stroke-width:1.3020833333333333;"/></g><!--link s4_y to s5--><g id="link_s4_y_s5"><path d="M94.1016,315.8984 C108.0599,327.7214 119.0879,337.0372 133.0463,348.8471 " fill="none" id="s4_y-to-s5" style="stroke:#181818;stroke-width:1.3020833333333333;"/><polygon fill="#181818" points="139.0104,353.8932,133.4283,342.3479,134.0403,349.6881,126.7001,350.3001,139.0104,353.8932" style="stroke:#181818;stroke-width:1.3020833333333333;"/></g><!--link s4_n to s5--><g id="link_s4_n_s5"><path d="M238.8802,315.8984 C224.7266,327.7214 213.5223,337.0754 199.3817,348.8853 " fill="none" id="s4_n-to-s5" style="stroke:#181818;stroke-width:1.3020833333333333;"/><polygon fill="#181818" points="193.3854,353.8932,205.7185,350.3788,198.3823,349.7199,199.0412,342.3838,193.3854,353.8932" style="stroke:#181818;stroke-width:1.3020833333333333;"/></g><!--link s5 to s6--><g id="link_s5_s6"><path d="M166.0156,402.2266 C166.0156,414.0365 166.0156,420.599 166.0156,432.4089 " fill="none" id="s5-to-s6" style="stroke:#181818;stroke-width:1.3020833333333333;"/><polygon fill="#181818" points="166.0156,440.2214,171.224,428.5026,166.0156,433.7109,160.8073,428.5026,166.0156,440.2214" style="stroke:#181818;stroke-width:1.3020833333333333;"/></g><!--link s6 to s7--><g id="link_s6_s7"><path d="M166.0156,488.5547 C166.0156,500.3646 166.0156,506.9271 166.0156,518.737 " fill="none" id="s6-to-s7" style="stroke:#181818;stroke-width:1.3020833333333333;"/><polygon fill="#181818" points="166.0156,526.5495,171.224,514.8307,166.0156,520.0391,160.8073,514.8307,166.0156,526.5495" style="stroke:#181818;stroke-width:1.3020833333333333;"/></g><!--link s7 to s8--><g id="link_s7_s8"><path d="M166.0156,574.8698 C166.0156,586.6927 166.0156,593.2422 166.0156,605.0521 " fill="none" id="s7-to-s8" style="stroke:#181818;stroke-width:1.3020833333333333;"/><polygon fill="#181818" points="166.0156,612.8646,171.224,601.1458,166.0156,606.3542,160.8073,601.1458,166.0156,612.8646" style="stroke:#181818;stroke-width:1.3020833333333333;"/></g><!--link s8 to s9--><g id="link_s8_s9"><path d="M166.0156,661.1979 C166.0156,673.0078 166.0156,679.5703 166.0156,691.3802 " fill="none" id="s8-to-s9" style="stroke:#181818;stroke-width:1.3020833333333333;"/><polygon fill="#181818" points="166.0156,699.1927,171.224,687.474,166.0156,692.6823,160.8073,687.474,166.0156,699.1927" style="stroke:#181818;stroke-width:1.3020833333333333;"/></g><!--link s9 to s10--><g id="link_s9_s10"><path d="M166.0156,747.526 C166.0156,759.3359 166.0156,765.8984 166.0156,777.7083 " fill="none" id="s9-to-s10" style="stroke:#181818;stroke-width:1.3020833333333333;"/><polygon fill="#181818" points="166.0156,785.5208,171.224,773.8021,166.0156,779.0104,160.8073,773.8021,166.0156,785.5208" style="stroke:#181818;stroke-width:1.3020833333333333;"/></g><!--link s10 to s11--><g id="link_s10_s11"><path d="M166.0156,833.8411 C166.0156,845.6641 166.0156,852.2135 166.0156,864.0234 " fill="none" id="s10-to-s11" style="stroke:#181818;stroke-width:1.3020833333333333;"/><polygon fill="#181818" points="166.0156,871.8359,171.224,860.1172,166.0156,865.3255,160.8073,860.1172,166.0156,871.8359" style="stroke:#181818;stroke-width:1.3020833333333333;"/></g><!--SRC=[dP8zQy9G58Rt_8g3amvIeuqV84AXIxSEtKkqgGJZ9PWi7MrZQUMAGzDYROI8WYrOaD91gFwXvkG_DBUQgjTCNGuyX_TzpxaVHaqbkjoGwz2GISrGTCYa1EElUQ6h8AQbhOukLsfoLJbJJKqvqjGggIl414svD0MXeLHCcLGr1MB5SibxSBp10WUVtfm2tZJnhWTeZT5zB1wKIp6G3J14tjEP1JRm7NTFckQbGmU_fgi9w3gijdhWjoYsntvxlZ5cE2EE5lxJFU1jn-jQS7fo33YSeVEwSHoUNqLxV7iHhETtf_X2sPxxHi8R9qsSM55hIPpo-sCP70dyxljUR9QJ-dsARcHexh-NbET7K9jvNsZa1HNuKmPfDlqTCuzA5rEyuTdoHdHB8ExydY06bxRNiG6lfzX_spoB43V412IJ9OWRwOJ0ofeoZ38X1LgE2MFMNdUa5PCTbaBACig6b6EK2odFA1zIWL4X9375CAWXYuaV]--></g></svg>