<?xml version="1.0" encoding="us-ascii" standalone="no"?><svg xmlns="http://www.w3.org/2000/svg" xmlns:xlink="http://www.w3.org/1999/xlink" contentStyleType="text/css" height="1187.5px" preserveAspectRatio="none" style="width:433px;height:1187px;background:#FFFFFF;" version="1.1" viewBox="0 0 433 1187" width="433.5938px" zoomAndPan="magnify"><defs/><g><!--entity s1--><g id="elem_s1"><rect fill="#F1F1F1" height="47.2616" rx="3.2552" ry="3.2552" style="stroke:#181818;stroke-width:0.6510416666666666;" width="174.4792" x="127.6042" y="9.1146"/><text fill="#000000" font-family="sans-serif" font-size="18.2292" font-weight="bold" lengthAdjust="spacing" textLength="148.4375" x="140.625" y="39.0561">&#46300;&#46972;&#51060;&#48652; &#49345;&#49688; &#49444;&#51221;</text></g><!--entity s2--><g id="elem_s2"><rect fill="#F1F1F1" height="47.2616" rx="3.2552" ry="3.2552" style="stroke:#181818;stroke-width:0.6510416666666666;" width="123.6979" x="152.9948" y="121.4844"/><text fill="#000000" font-family="sans-serif" font-size="18.2292" font-weight="bold" lengthAdjust="spacing" textLength="97.6563" x="166.0156" y="151.4259">&#45936;&#46300; &#55072; &#49444;&#51221;</text></g><!--entity s3--><g id="elem_s3"><rect fill="#F1F1F1" height="47.2616" rx="3.2552" ry="3.2552" style="stroke:#181818;stroke-width:0.6510416666666666;" width="201.8229" x="113.9323" y="233.8542"/><text fill="#000000" font-family="sans-serif" font-size="18.2292" font-weight="bold" lengthAdjust="spacing" textLength="175.7813" x="126.9531" y="263.7957">&#47196;&#52972;&#46972;&#51060;&#51228;&#51060;&#49496; &#53580;&#49828;&#53944;</text></g><!--entity s4_y--><g id="elem_s4_y"><rect fill="#F1F1F1" height="47.2616" rx="3.2552" ry="3.2552" style="stroke:#181818;stroke-width:0.6510416666666666;" width="179.6875" x="9.1146" y="346.224"/><text fill="#000000" font-family="sans-serif" font-size="18.2292" font-weight="bold" lengthAdjust="spacing" textLength="153.6458" x="22.1354" y="376.1655">&#51452;&#54665; &#49549;&#46020; PID &#51312;&#50984;</text></g><!--entity s4_n--><g id="elem_s4_n"><rect fill="#F1F1F1" height="47.2616" rx="3.2552" ry="3.2552" style="stroke:#181818;stroke-width:0.6510416666666666;" width="191.4063" x="235.026" y="346.224"/><text fill="#000000" font-family="sans-serif" font-size="18.2292" font-weight="bold" lengthAdjust="spacing" textLength="165.3646" x="248.0469" y="376.1655">&#51452;&#54665; &#54588;&#46300;&#54252;&#50892;&#46300; &#51312;&#50984;</text></g><!--entity s5--><g id="elem_s5"><rect fill="#F1F1F1" height="47.2616" rx="3.2552" ry="3.2552" style="stroke:#181818;stroke-width:0.6510416666666666;" width="117.1875" x="156.25" y="458.5807"/><text fill="#000000" font-family="sans-serif" font-size="18.2292" font-weight="bold" lengthAdjust="spacing" textLength="91.1458" x="169.2708" y="488.5223">&#51649;&#51652; &#53580;&#49828;&#53944;</text></g><!--entity s6--><g id="elem_s6"><rect fill="#F1F1F1" height="47.2616" rx="3.2552" ry="3.2552" style="stroke:#181818;stroke-width:0.6510416666666666;" width="123.6979" x="152.9948" y="570.9505"/><text fill="#000000" font-family="sans-serif" font-size="18.2292" font-weight="bold" lengthAdjust="spacing" textLength="97.6563" x="166.0156" y="600.8921">&#44221;&#47196; &#54253; &#51312;&#50984;</text></g><!--entity s7--><g id="elem_s7"><rect fill="#F1F1F1" height="47.2616" rx="3.2552" ry="3.2552" style="stroke:#181818;stroke-width:0.6510416666666666;" width="117.1875" x="156.25" y="683.3203"/><text fill="#000000" font-family="sans-serif" font-size="18.2292" font-weight="bold" lengthAdjust="spacing" textLength="91.1458" x="169.2708" y="713.2619">&#54924;&#51204; &#53580;&#49828;&#53944;</text></g><!--entity s8--><g id="elem_s8"><rect fill="#F1F1F1" height="47.2616" rx="3.2552" ry="3.2552" style="stroke:#181818;stroke-width:0.6510416666666666;" width="201.8229" x="113.9323" y="795.6771"/><text fill="#000000" font-family="sans-serif" font-size="18.2292" font-weight="bold" lengthAdjust="spacing" textLength="175.7813" x="126.9531" y="825.6186">&#47196;&#52972;&#46972;&#51060;&#51228;&#51060;&#49496; &#53580;&#49828;&#53944;</text></g><!--entity s9--><g id="elem_s9"><rect fill="#F1F1F1" height="47.2616" rx="3.2552" ry="3.2552" style="stroke:#181818;stroke-width:0.6510416666666666;" width="156.25" x="136.7188" y="908.0469"/><text fill="#000000" font-family="sans-serif" font-size="18.2292" font-weight="bold" lengthAdjust="spacing" textLength="130.2083" x="149.7396" y="937.9884">&#54036;&#47196;&#50892; PID &#51312;&#50984;</text></g><!--entity s10--><g id="elem_s10"><rect fill="#F1F1F1" height="47.2616" rx="3.2552" ry="3.2552" style="stroke:#181818;stroke-width:0.6510416666666666;" width="151.0417" x="139.3229" y="1020.4167"/><text fill="#000000" font-family="sans-serif" font-size="18.2292" font-weight="bold" lengthAdjust="spacing" textLength="125" x="152.3438" y="1050.3582">&#49828;&#54540;&#46972;&#51064; &#53580;&#49828;&#53944;</text></g><!--entity s11--><g id="elem_s11"><rect fill="#F1F1F1" height="47.2616" rx="3.2552" ry="3.2552" style="stroke:#181818;stroke-width:0.6510416666666666;" width="59.8958" x="184.8958" y="1132.7734"/><text fill="#000000" font-family="sans-serif" font-size="18.2292" font-weight="bold" lengthAdjust="spacing" textLength="33.8542" x="197.9167" y="1162.715">&#50756;&#47308;</text></g><!--link s1 to s2--><g id="link_s1_s2"><path d="M214.8438,56.7969 C214.8438,75.638 214.8438,94.4531 214.8438,113.2943 " fill="none" id="s1-to-s2" style="stroke:#181818;stroke-width:1.3020833333333333;"/><polygon fill="#181818" points="214.8438,121.1068,220.0521,109.388,214.8438,114.5964,209.6354,109.388,214.8438,121.1068" style="stroke:#181818;stroke-width:1.3020833333333333;"/></g><!--link s2 to s3--><g id="link_s2_s3"><path d="M214.8438,169.1667 C214.8438,187.9948 214.8438,206.8229 214.8438,225.651 " fill="none" id="s2-to-s3" style="stroke:#181818;stroke-width:1.3020833333333333;"/><polygon fill="#181818" points="214.8438,233.4635,220.0521,221.7448,214.8438,226.9531,209.6354,221.7448,214.8438,233.4635" style="stroke:#181818;stroke-width:1.3020833333333333;"/></g><!--link s3 to s4_y--><g id="link_s3_s4_y"><path d="M190.8333,281.5234 C170.9375,300.3646 148.4982,321.6334 128.6154,340.4616 " fill="none" id="s3-to-s4_y" style="stroke:#181818;stroke-width:1.3020833333333333;"/><polygon fill="#181818" points="122.9427,345.8333,135.0329,341.5575,127.6699,341.3569,127.8705,333.9939,122.9427,345.8333" style="stroke:#181818;stroke-width:1.3020833333333333;"/></g><!--link s3 to s4_n--><g id="link_s3_s4_n"><path d="M238.8542,281.5234 C258.75,300.3646 281.1893,321.6334 301.0721,340.4616 " fill="none" id="s3-to-s4_n" style="stroke:#181818;stroke-width:1.3020833333333333;"/><polygon fill="#181818" points="306.7448,345.8333,301.817,333.9939,302.0176,341.3569,294.6546,341.5575,306.7448,345.8333" style="stroke:#181818;stroke-width:1.3020833333333333;"/></g><!--link s4_y to s5--><g id="link_s4_y_s5"><path d="M122.9687,393.8932 C142.8646,412.7344 165.3039,434.0032 185.1867,452.8314 " fill="none" id="s4_y-to-s5" style="stroke:#181818;stroke-width:1.3020833333333333;"/><polygon fill="#181818" points="190.8594,458.2031,185.9315,446.3637,186.1321,453.7267,178.7692,453.9273,190.8594,458.2031" style="stroke:#181818;stroke-width:1.3020833333333333;"/></g><!--link s4_n to s5--><g id="link_s4_n_s5"><path d="M306.7188,393.8932 C286.8229,412.7344 264.3836,434.0032 244.5008,452.8314 " fill="none" id="s4_n-to-s5" style="stroke:#181818;stroke-width:1.3020833333333333;"/><polygon fill="#181818" points="238.8281,458.2031,250.9183,453.9273,243.5554,453.7267,243.756,446.3637,238.8281,458.2031" style="stroke:#181818;stroke-width:1.3020833333333333;"/></g><!--link s5 to s6--><g id="link_s5_s6"><path d="M214.8438,506.263 C214.8438,525.0911 214.8438,543.9193 214.8438,562.7474 " fill="none" id="s5-to-s6" style="stroke:#181818;stroke-width:1.3020833333333333;"/><polygon fill="#181818" points="214.8438,570.5599,220.0521,558.8411,214.8438,564.0495,209.6354,558.8411,214.8438,570.5599" style="stroke:#181818;stroke-width:1.3020833333333333;"/></g><!--link s6 to s7--><g id="link_s6_s7"><path d="M214.8438,618.6198 C214.8438,637.4609 214.8438,656.2891 214.8438,675.1172 " fill="none" id="s6-to-s7" style="stroke:#181818;stroke-width:1.3020833333333333;"/><polygon fill="#181818" points="214.8438,682.9297,220.0521,671.2109,214.8438,676.4193,209.6354,671.2109,214.8438,682.9297" style="stroke:#181818;stroke-width:1.3020833333333333;"/></g><!--link s7 to s8--><g id="link_s7_s8"><path d="M214.8438,730.9896 C214.8438,749.8307 214.8438,768.6589 214.8438,787.487 " fill="none" id="s7-to-s8" style="stroke:#181818;stroke-width:1.3020833333333333;"/><polygon fill="#181818" points="214.8438,795.2995,220.0521,783.5807,214.8438,788.7891,209.6354,783.5807,214.8438,795.2995" style="stroke:#181818;stroke-width:1.3020833333333333;"/></g><!--link s8 to s9--><g id="link_s8_s9"><path d="M214.8438,843.3594 C214.8438,862.1875 214.8438,881.0156 214.8438,899.8437 " fill="none" id="s8-to-s9" style="stroke:#181818;stroke-width:1.3020833333333333;"/><polygon fill="#181818" points="214.8438,907.6562,220.0521,895.9375,214.8438,901.1458,209.6354,895.9375,214.8438,907.6562" style="stroke:#181818;stroke-width:1.3020833333333333;"/></g><!--link s9 to s10--><g id="link_s9_s10"><path d="M214.8438,955.7161 C214.8438,974.5573 214.8438,993.3854 214.8438,1012.2135 " fill="none" id="s9-to-s10" style="stroke:#181818;stroke-width:1.3020833333333333;"/><polygon fill="#181818" points="214.8438,1020.026,220.0521,1008.3073,214.8438,1013.5156,209.6354,1008.3073,214.8438,1020.026" style="stroke:#181818;stroke-width:1.3020833333333333;"/></g><!--link s10 to s11--><g id="link_s10_s11"><path d="M214.8438,1068.0859 C214.8438,1086.9271 214.8438,1105.7552 214.8438,1124.5833 " fill="none" id="s10-to-s11" style="stroke:#181818;stroke-width:1.3020833333333333;"/><polygon fill="#181818" points="214.8438,1132.3958,220.0521,1120.6771,214.8438,1125.8854,209.6354,1120.6771,214.8438,1132.3958" style="stroke:#181818;stroke-width:1.3020833333333333;"/></g><!--SRC=[dP6zQi9G583tFCN1IGUfqSOV4A7GfLk7xYNQD0JZ9PWi7QMnj7B5eRRO6Y6YO0SBKZe8jI_KdFiEpQscsckcBWU-m_dEpxrstI2MsbGRq5H9tTOiK3AI_Pkyi0oGiyfEnb9hTLNNpWp7r8vCGoSDZJXWQfUE93MrcgCItTGWKQvMWdil6Armz1uiAU1r2sy7WEuK_OVoGRMI0DK6MnQTxYBKW7d-NcbMB1rx-35VJq3Vux4z0DQcs9copd8hvWGH9olsU0TuqmrwBfoU70EE5-YzR8t3ywjuX_LNuNgiDySXvNlkYqGKPosSkN5hAKBbrzjdU1AmtkjUsxnGofuf-h5D2_zzfA8uWlQvEwIn3rGIhmoxzUdFc6LSTpaZ2azkCA4x1R8a9Mqv1Ubq1P9sDYNniA4Sfrn4uUS8J3Zpz2QZh9dyOIMYFATyH0LEXOYAd8eHbJYL8f8p7CCOiPpw1W00]--></g></svg>