<?xml version="1.0" encoding="us-ascii" standalone="no"?><svg xmlns="http://www.w3.org/2000/svg" xmlns:xlink="http://www.w3.org/1999/xlink" contentStyleType="text/css" height="697.9167px" preserveAspectRatio="none" style="width:433px;height:697px;background:#FFFFFF;" version="1.1" viewBox="0 0 433 697" width="433.5938px" zoomAndPan="magnify"><defs/><g><!--cluster ?? ??--><g id="cluster_&#54788;&#51116; &#45800;&#44228;"><rect fill="none" height="113.6589" rx="3.2552" ry="3.2552" style="stroke:#181818;stroke-width:1.3020833333333333;" width="192.7083" x="118.4896" y="508.8281"/><text fill="#000000" font-family="sans-serif" font-size="18.2292" font-weight="bold" lengthAdjust="spacing" textLength="74.2188" x="177.7344" y="528.353">&#54788;&#51116; &#45800;&#44228;</text></g><!--entity s10--><g id="elem_s10"><rect fill="#F1F1F1" height="47.2616" rx="3.2552" ry="3.2552" style="stroke:#181818;stroke-width:0.6510416666666666;" width="151.0417" x="139.3229" y="554.401"/><text fill="#000000" font-family="sans-serif" font-size="18.2292" font-weight="bold" lengthAdjust="spacing" textLength="125" x="152.3438" y="584.3426">&#49828;&#54540;&#46972;&#51064; &#53580;&#49828;&#53944;</text></g><!--entity s4_y--><g id="elem_s4_y"><rect fill="#F1F1F1" height="47.2616" rx="3.2552" ry="3.2552" style="stroke:#181818;stroke-width:0.6510416666666666;" width="179.6875" x="9.1146" y="9.1146"/><text fill="#000000" font-family="sans-serif" font-size="18.2292" font-weight="bold" lengthAdjust="spacing" textLength="153.6458" x="22.1354" y="39.0561">&#51452;&#54665; &#49549;&#46020; PID &#51312;&#50984;</text></g><!--entity s4_n--><g id="elem_s4_n"><rect fill="#F1F1F1" height="47.2616" rx="3.2552" ry="3.2552" style="stroke:#181818;stroke-width:0.6510416666666666;" width="191.4063" x="235.026" y="9.1146"/><text fill="#000000" font-family="sans-serif" font-size="18.2292" font-weight="bold" lengthAdjust="spacing" textLength="165.3646" x="248.0469" y="39.0561">&#51452;&#54665; &#54588;&#46300;&#54252;&#50892;&#46300; &#51312;&#50984;</text></g><!--entity s5--><g id="elem_s5"><rect fill="#F1F1F1" height="47.2616" rx="3.2552" ry="3.2552" style="stroke:#181818;stroke-width:0.6510416666666666;" width="117.1875" x="156.25" y="95.4297"/><text fill="#000000" font-family="sans-serif" font-size="18.2292" font-weight="bold" lengthAdjust="spacing" textLength="91.1458" x="169.2708" y="125.3712">&#51649;&#51652; &#53580;&#49828;&#53944;</text></g><!--entity s6--><g id="elem_s6"><rect fill="#F1F1F1" height="47.2616" rx="3.2552" ry="3.2552" style="stroke:#181818;stroke-width:0.6510416666666666;" width="123.6979" x="152.9948" y="181.7578"/><text fill="#000000" font-family="sans-serif" font-size="18.2292" font-weight="bold" lengthAdjust="spacing" textLength="97.6563" x="166.0156" y="211.6994">&#44221;&#47196; &#54253; &#51312;&#50984;</text></g><!--entity s7--><g id="elem_s7"><rect fill="#F1F1F1" height="47.2616" rx="3.2552" ry="3.2552" style="stroke:#181818;stroke-width:0.6510416666666666;" width="117.1875" x="156.25" y="268.0859"/><text fill="#000000" font-family="sans-serif" font-size="18.2292" font-weight="bold" lengthAdjust="spacing" textLength="91.1458" x="169.2708" y="298.0275">&#54924;&#51204; &#53580;&#49828;&#53944;</text></g><!--entity s8--><g id="elem_s8"><rect fill="#F1F1F1" height="47.2616" rx="3.2552" ry="3.2552" style="stroke:#181818;stroke-width:0.6510416666666666;" width="201.8229" x="113.9323" y="354.401"/><text fill="#000000" font-family="sans-serif" font-size="18.2292" font-weight="bold" lengthAdjust="spacing" textLength="175.7813" x="126.9531" y="384.3426">&#47196;&#52972;&#46972;&#51060;&#51228;&#51060;&#49496; &#53580;&#49828;&#53944;</text></g><!--entity s9--><g id="elem_s9"><rect fill="#F1F1F1" height="47.2616" rx="3.2552" ry="3.2552" style="stroke:#181818;stroke-width:0.6510416666666666;" width="156.25" x="136.7188" y="440.7292"/><text fill="#000000" font-family="sans-serif" font-size="18.2292" font-weight="bold" lengthAdjust="spacing" textLength="130.2083" x="149.7396" y="470.6707">&#54036;&#47196;&#50892; PID &#51312;&#50984;</text></g><!--entity s11--><g id="elem_s11"><rect fill="#F1F1F1" height="47.2616" rx="3.2552" ry="3.2552" style="stroke:#181818;stroke-width:0.6510416666666666;" width="59.8958" x="184.8958" y="643.3203"/><text fill="#000000" font-family="sans-serif" font-size="18.2292" font-weight="bold" lengthAdjust="spacing" textLength="33.8542" x="197.9167" y="673.2619">&#50756;&#47308;</text></g><!--link s4_y to s5--><g id="link_s4_y_s5"><path d="M130.625,56.9141 C146.9792,68.737 160.543,78.5228 176.8842,90.3327 " fill="none" id="s4_y-to-s5" style="stroke:#181818;stroke-width:1.3020833333333333;"/><polygon fill="#181818" points="183.2161,94.9089,176.769,83.8233,177.9395,91.0954,170.6674,92.2659,183.2161,94.9089" style="stroke:#181818;stroke-width:1.3020833333333333;"/></g><!--link s4_n to s5--><g id="link_s4_n_s5"><path d="M299.0625,56.9141 C282.7083,68.737 269.1445,78.5228 252.8033,90.3327 " fill="none" id="s4_n-to-s5" style="stroke:#181818;stroke-width:1.3020833333333333;"/><polygon fill="#181818" points="246.4714,94.9089,259.0201,92.2659,251.748,91.0954,252.9185,83.8233,246.4714,94.9089" style="stroke:#181818;stroke-width:1.3020833333333333;"/></g><!--link s5 to s6--><g id="link_s5_s6"><path d="M214.8438,143.2422 C214.8438,155.0521 214.8438,161.6146 214.8438,173.4245 " fill="none" id="s5-to-s6" style="stroke:#181818;stroke-width:1.3020833333333333;"/><polygon fill="#181818" points="214.8438,181.237,220.0521,169.5182,214.8438,174.7266,209.6354,169.5182,214.8438,181.237" style="stroke:#181818;stroke-width:1.3020833333333333;"/></g><!--link s6 to s7--><g id="link_s6_s7"><path d="M214.8438,229.5703 C214.8438,241.3802 214.8438,247.9427 214.8438,259.7526 " fill="none" id="s6-to-s7" style="stroke:#181818;stroke-width:1.3020833333333333;"/><polygon fill="#181818" points="214.8438,267.5651,220.0521,255.8464,214.8438,261.0547,209.6354,255.8464,214.8438,267.5651" style="stroke:#181818;stroke-width:1.3020833333333333;"/></g><!--link s7 to s8--><g id="link_s7_s8"><path d="M214.8438,315.8854 C214.8438,327.7083 214.8438,334.2578 214.8438,346.0677 " fill="none" id="s7-to-s8" style="stroke:#181818;stroke-width:1.3020833333333333;"/><polygon fill="#181818" points="214.8438,353.8802,220.0521,342.1615,214.8438,347.3698,209.6354,342.1615,214.8438,353.8802" style="stroke:#181818;stroke-width:1.3020833333333333;"/></g><!--link s8 to s9--><g id="link_s8_s9"><path d="M214.8438,402.2135 C214.8438,414.0234 214.8438,420.5859 214.8438,432.3958 " fill="none" id="s8-to-s9" style="stroke:#181818;stroke-width:1.3020833333333333;"/><polygon fill="#181818" points="214.8438,440.2083,220.0521,428.4896,214.8438,433.6979,209.6354,428.4896,214.8438,440.2083" style="stroke:#181818;stroke-width:1.3020833333333333;"/></g><!--link s9 to s10--><g id="link_s9_s10"><path d="M214.8438,488.138 C214.8438,507.2786 214.8438,526.849 214.8438,546.0937 " fill="none" id="s9-to-s10" style="stroke:#181818;stroke-width:1.3020833333333333;"/><polygon fill="#181818" points="214.8438,553.9062,220.0521,542.1875,214.8438,547.3958,209.6354,542.1875,214.8438,553.9062" style="stroke:#181818;stroke-width:1.3020833333333333;"/></g><!--link s10 to s11--><g id="link_s10_s11"><path d="M214.8438,602.0052 C214.8438,614.5964 214.8438,622.3958 214.8438,635.013 " fill="none" id="s10-to-s11" style="stroke:#181818;stroke-width:1.3020833333333333;"/><polygon fill="#181818" points="214.8438,642.8255,220.0521,631.1068,214.8438,636.3151,209.6354,631.1068,214.8438,642.8255" style="stroke:#181818;stroke-width:1.3020833333333333;"/></g><!--SRC=[RP7FIiD04CRl-nH3JisXcAZv1oKdBzvy0qarIAc6a7WHyI2aWdKb1uDKcqfBXVOGGTH3mVX2tTrtC5jOhMikm_w6xvjlc8sxdI3q8ky48Y_endu8MngAVvg7OGVqJGD5_i6f5nmT-w2qsYwTbkp-6kZLBKaJsDlT0JfvfVcyjT5s5V1YYBVtp-ezB2l9NSxIWWvnzQWn1h9nTabd2R0Uflrdrb_yQkMrbczVP983Ir_-ZJKbANl4T5mxr9AKrKJwMP1HIKSVT9ppsXlK6Mqv0cVSEyIr1tBMrMoGqAS2oCry-PueS2vVe4hAy6g5HLsohg4BsVAGa2bUa-W8eGR_5XMQJHSQiQ6kEFZ3XY2Jaod8ucG9iZdPWXnEZY1TurXLmRhw3G00]--></g></svg>