<?xml version="1.0" encoding="us-ascii" standalone="no"?><svg xmlns="http://www.w3.org/2000/svg" xmlns:xlink="http://www.w3.org/1999/xlink" contentStyleType="text/css" height="796.875px" preserveAspectRatio="none" style="width:433px;height:796px;background:#FFFFFF;" version="1.1" viewBox="0 0 433 796" width="433.5938px" zoomAndPan="magnify"><defs/><g><!--entity s1--><g id="elem_s1"><rect fill="#F1F1F1" height="47.2616" rx="3.2552" ry="3.2552" style="stroke:#181818;stroke-width:0.6510416666666666;" width="174.4792" x="127.6042" y="9.1146"/><text fill="#000000" font-family="sans-serif" font-size="18.2292" font-weight="bold" lengthAdjust="spacing" textLength="148.4375" x="140.625" y="39.0561">&#46300;&#46972;&#51060;&#48652; &#49345;&#49688; &#49444;&#51221;</text></g><!--entity s2--><g id="elem_s2"><rect fill="#F1F1F1" height="47.2616" rx="3.2552" ry="3.2552" style="stroke:#181818;stroke-width:0.6510416666666666;" width="123.6979" x="152.9948" y="82.4219"/><text fill="#000000" font-family="sans-serif" font-size="18.2292" font-weight="bold" lengthAdjust="spacing" textLength="97.6563" x="166.0156" y="112.3634">&#45936;&#46300; &#55072; &#49444;&#51221;</text></g><!--entity s3--><g id="elem_s3"><rect fill="#F1F1F1" height="47.2616" rx="3.2552" ry="3.2552" style="stroke:#181818;stroke-width:0.6510416666666666;" width="201.8229" x="113.9323" y="155.7292"/><text fill="#000000" font-family="sans-serif" font-size="18.2292" font-weight="bold" lengthAdjust="spacing" textLength="175.7813" x="126.9531" y="185.6707">&#47196;&#52972;&#46972;&#51060;&#51228;&#51060;&#49496; &#53580;&#49828;&#53944;</text></g><!--entity s4_y--><g id="elem_s4_y"><rect fill="#F1F1F1" height="47.2616" rx="3.2552" ry="3.2552" style="stroke:#181818;stroke-width:0.6510416666666666;" width="179.6875" x="9.1146" y="229.0365"/><text fill="#000000" font-family="sans-serif" font-size="18.2292" font-weight="bold" lengthAdjust="spacing" textLength="153.6458" x="22.1354" y="258.978">&#51452;&#54665; &#49549;&#46020; PID &#51312;&#50984;</text></g><!--entity s4_n--><g id="elem_s4_n"><rect fill="#F1F1F1" height="47.2616" rx="3.2552" ry="3.2552" style="stroke:#181818;stroke-width:0.6510416666666666;" width="191.4063" x="235.026" y="229.0365"/><text fill="#000000" font-family="sans-serif" font-size="18.2292" font-weight="bold" lengthAdjust="spacing" textLength="165.3646" x="248.0469" y="258.978">&#51452;&#54665; &#54588;&#46300;&#54252;&#50892;&#46300; &#51312;&#50984;</text></g><!--entity s5--><g id="elem_s5"><rect fill="#F1F1F1" height="47.2616" rx="3.2552" ry="3.2552" style="stroke:#181818;stroke-width:0.6510416666666666;" width="117.1875" x="156.25" y="302.3307"/><text fill="#000000" font-family="sans-serif" font-size="18.2292" font-weight="bold" lengthAdjust="spacing" textLength="91.1458" x="169.2708" y="332.2723">&#51649;&#51652; &#53580;&#49828;&#53944;</text></g><!--entity s6--><g id="elem_s6"><rect fill="#F1F1F1" height="47.2616" rx="3.2552" ry="3.2552" style="stroke:#181818;stroke-width:0.6510416666666666;" width="123.6979" x="152.9948" y="375.638"/><text fill="#000000" font-family="sans-serif" font-size="18.2292" font-weight="bold" lengthAdjust="spacing" textLength="97.6563" x="166.0156" y="405.5796">&#44221;&#47196; &#54253; &#51312;&#50984;</text></g><!--entity s7--><g id="elem_s7"><rect fill="#F1F1F1" height="47.2616" rx="3.2552" ry="3.2552" style="stroke:#181818;stroke-width:0.6510416666666666;" width="117.1875" x="156.25" y="448.9453"/><text fill="#000000" font-family="sans-serif" font-size="18.2292" font-weight="bold" lengthAdjust="spacing" textLength="91.1458" x="169.2708" y="478.8869">&#54924;&#51204; &#53580;&#49828;&#53944;</text></g><!--entity s8--><g id="elem_s8"><rect fill="#F1F1F1" height="47.2616" rx="3.2552" ry="3.2552" style="stroke:#181818;stroke-width:0.6510416666666666;" width="201.8229" x="113.9323" y="522.2396"/><text fill="#000000" font-family="sans-serif" font-size="18.2292" font-weight="bold" lengthAdjust="spacing" textLength="175.7813" x="126.9531" y="552.1811">&#47196;&#52972;&#46972;&#51060;&#51228;&#51060;&#49496; &#53580;&#49828;&#53944;</text></g><!--entity s9--><g id="elem_s9"><rect fill="#F1F1F1" height="47.2616" rx="3.2552" ry="3.2552" style="stroke:#181818;stroke-width:0.6510416666666666;" width="156.25" x="136.7188" y="595.5469"/><text fill="#000000" font-family="sans-serif" font-size="18.2292" font-weight="bold" lengthAdjust="spacing" textLength="130.2083" x="149.7396" y="625.4884">&#54036;&#47196;&#50892; PID &#51312;&#50984;</text></g><!--entity s10--><g id="elem_s10"><rect fill="#F1F1F1" height="47.2616" rx="3.2552" ry="3.2552" style="stroke:#181818;stroke-width:0.6510416666666666;" width="151.0417" x="139.3229" y="668.8542"/><text fill="#000000" font-family="sans-serif" font-size="18.2292" font-weight="bold" lengthAdjust="spacing" textLength="125" x="152.3438" y="698.7957">&#49828;&#54540;&#46972;&#51064; &#53580;&#49828;&#53944;</text></g><!--entity s11--><g id="elem_s11"><rect fill="#F1F1F1" height="47.2616" rx="3.2552" ry="3.2552" style="stroke:#181818;stroke-width:0.6510416666666666;" width="59.8958" x="184.8958" y="742.1484"/><text fill="#000000" font-family="sans-serif" font-size="18.2292" font-weight="bold" lengthAdjust="spacing" textLength="33.8542" x="197.9167" y="772.09">&#50756;&#47308;</text></g><!--link s1 to s2--><g id="link_s1_s2"><path d="M214.8438,56.8099 C214.8438,64.8828 214.8438,66.1589 214.8438,74.2188 " fill="none" id="s1-to-s2" style="stroke:#181818;stroke-width:1.3020833333333333;"/><polygon fill="#181818" points="214.8438,82.0313,220.0521,70.3125,214.8438,75.5208,209.6354,70.3125,214.8438,82.0313" style="stroke:#181818;stroke-width:1.3020833333333333;"/></g><!--link s2 to s3--><g id="link_s2_s3"><path d="M214.8438,130.1172 C214.8438,138.1901 214.8438,139.4531 214.8438,147.526 " fill="none" id="s2-to-s3" style="stroke:#181818;stroke-width:1.3020833333333333;"/><polygon fill="#181818" points="214.8438,155.3385,220.0521,143.6198,214.8438,148.8281,209.6354,143.6198,214.8438,155.3385" style="stroke:#181818;stroke-width:1.3020833333333333;"/></g><!--link s3 to s4_y--><g id="link_s3_s4_y"><path d="M177.5391,203.4245 C164.4401,211.4062 156.3827,216.3216 143.2577,224.3294 " fill="none" id="s3-to-s4_y" style="stroke:#181818;stroke-width:1.3020833333333333;"/><polygon fill="#181818" points="136.5885,228.3984,149.305,226.7411,142.1462,225.0076,143.8797,217.8488,136.5885,228.3984" style="stroke:#181818;stroke-width:1.3020833333333333;"/></g><!--link s3 to s4_n--><g id="link_s3_s4_n"><path d="M252.1484,203.4245 C265.2474,211.4062 273.3048,216.3216 286.4298,224.3294 " fill="none" id="s3-to-s4_n" style="stroke:#181818;stroke-width:1.3020833333333333;"/><polygon fill="#181818" points="293.099,228.3984,285.8078,217.8488,287.5413,225.0076,280.3825,226.7411,293.099,228.3984" style="stroke:#181818;stroke-width:1.3020833333333333;"/></g><!--link s4_y to s5--><g id="link_s4_y_s5"><path d="M136.263,276.7187 C149.362,284.7135 157.4193,289.6289 170.5443,297.6367 " fill="none" id="s4_y-to-s5" style="stroke:#181818;stroke-width:1.3020833333333333;"/><polygon fill="#181818" points="177.2135,301.7057,169.9224,291.1561,171.6559,298.3149,164.4971,300.0484,177.2135,301.7057" style="stroke:#181818;stroke-width:1.3020833333333333;"/></g><!--link s4_n to s5--><g id="link_s4_n_s5"><path d="M293.4245,276.7187 C280.3255,284.7135 272.2682,289.6289 259.1432,297.6367 " fill="none" id="s4_n-to-s5" style="stroke:#181818;stroke-width:1.3020833333333333;"/><polygon fill="#181818" points="252.474,301.7057,265.1904,300.0484,258.0316,298.3149,259.7651,291.1561,252.474,301.7057" style="stroke:#181818;stroke-width:1.3020833333333333;"/></g><!--link s5 to s6--><g id="link_s5_s6"><path d="M214.8438,350.026 C214.8438,358.099 214.8438,359.362 214.8438,367.4349 " fill="none" id="s5-to-s6" style="stroke:#181818;stroke-width:1.3020833333333333;"/><polygon fill="#181818" points="214.8438,375.2474,220.0521,363.5286,214.8438,368.737,209.6354,363.5286,214.8438,375.2474" style="stroke:#181818;stroke-width:1.3020833333333333;"/></g><!--link s6 to s7--><g id="link_s6_s7"><path d="M214.8438,423.3333 C214.8438,431.4062 214.8438,432.6693 214.8438,440.7422 " fill="none" id="s6-to-s7" style="stroke:#181818;stroke-width:1.3020833333333333;"/><polygon fill="#181818" points="214.8438,448.5547,220.0521,436.8359,214.8438,442.0443,209.6354,436.8359,214.8438,448.5547" style="stroke:#181818;stroke-width:1.3020833333333333;"/></g><!--link s7 to s8--><g id="link_s7_s8"><path d="M214.8438,496.6276 C214.8438,504.7005 214.8438,505.9766 214.8438,514.0495 " fill="none" id="s7-to-s8" style="stroke:#181818;stroke-width:1.3020833333333333;"/><polygon fill="#181818" points="214.8438,521.862,220.0521,510.1432,214.8438,515.3516,209.6354,510.1432,214.8438,521.862" style="stroke:#181818;stroke-width:1.3020833333333333;"/></g><!--link s8 to s9--><g id="link_s8_s9"><path d="M214.8438,569.9349 C214.8438,578.0078 214.8438,579.2708 214.8438,587.3438 " fill="none" id="s8-to-s9" style="stroke:#181818;stroke-width:1.3020833333333333;"/><polygon fill="#181818" points="214.8438,595.1563,220.0521,583.4375,214.8438,588.6458,209.6354,583.4375,214.8438,595.1563" style="stroke:#181818;stroke-width:1.3020833333333333;"/></g><!--link s9 to s10--><g id="link_s9_s10"><path d="M214.8438,643.2422 C214.8438,651.3151 214.8438,652.5781 214.8438,660.651 " fill="none" id="s9-to-s10" style="stroke:#181818;stroke-width:1.3020833333333333;"/><polygon fill="#181818" points="214.8438,668.4635,220.0521,656.7448,214.8438,661.9531,209.6354,656.7448,214.8438,668.4635" style="stroke:#181818;stroke-width:1.3020833333333333;"/></g><!--link s10 to s11--><g id="link_s10_s11"><path d="M214.8438,716.5365 C214.8438,724.6094 214.8438,725.8854 214.8438,733.9583 " fill="none" id="s10-to-s11" style="stroke:#181818;stroke-width:1.3020833333333333;"/><polygon fill="#181818" points="214.8438,741.7708,220.0521,730.0521,214.8438,735.2604,209.6354,730.0521,214.8438,741.7708" style="stroke:#181818;stroke-width:1.3020833333333333;"/></g><!--SRC=[dP6zQi9G583tFCN1IGUfYOq_84AXIxSEtKkqgGJZ9PWi7QMnj7B5eRRO6Y6YO0SBKZe8jI_KdFiEpQscsckcBWU-m_dEpxrstI2MrjGQqDH8tTOjK3AI_Pkyi0oG5NKdOsdLkbRJpmp7r8zCeqOQEd70r2yTIMhgLKSZDLE7HAbI3kwzOBJ2qNkmf83NBRmT0BfJz1zA1vLo0ZGRR5bqkejG0-RvUwMAM3hsy6E-de2-nsDx0AnDiJDbdULMp0eYJbRiyGxmfXlqN3WzEGOSBz1xsHg7vrVn3kklmlLORuv3olVS5uaepbeuS-FMKeNAhxVFy2HWlTUzjZcXb3rJz6ERvl_xI0Ln1ErpTqXZ7wWeNXbswzEVCSkuxd9659xSO49t2cH9Ijfo2jBfCYHj9INniA4ifsn4uUS8J3Zpz2QZhfdyOJMY7ATSH7bE-OWAd0eH5JaL8v8p7CCOiPpw1W00]--></g></svg>