<?xml version="1.0" encoding="us-ascii" standalone="no"?><svg xmlns="http://www.w3.org/2000/svg" xmlns:xlink="http://www.w3.org/1999/xlink" contentStyleType="text/css" height="497.3958px" preserveAspectRatio="none" style="width:503px;height:497px;background:#FFFFFF;" version="1.1" viewBox="0 0 503 497" width="503.9062px" zoomAndPan="magnify"><defs/><g><!--cluster ??? ??--><g id="cluster_&#50644;&#53076;&#45908; &#49324;&#50857;"><rect fill="none" height="113.6719" rx="3.2552" ry="3.2552" style="stroke:#181818;stroke-width:1.3020833333333333;" width="221.3542" x="9.1146" y="163.5286"/><text fill="#000000" font-family="sans-serif" font-size="18.2292" font-weight="bold" lengthAdjust="spacing" textLength="91.1458" x="74.2188" y="183.0535">&#50644;&#53076;&#45908; &#49324;&#50857;</text></g><!--cluster ??? ???--><g id="cluster_&#50644;&#53076;&#45908; &#48120;&#49324;&#50857;"><rect fill="none" height="113.6719" rx="3.2552" ry="3.2552" style="stroke:#181818;stroke-width:1.3020833333333333;" width="234.375" x="261.7188" y="163.5286"/><text fill="#000000" font-family="sans-serif" font-size="18.2292" font-weight="bold" lengthAdjust="spacing" textLength="108.0729" x="324.8698" y="183.0535">&#50644;&#53076;&#45908; &#48120;&#49324;&#50857;</text></g><!--cluster ?? ??--><g id="cluster_&#54788;&#51116; &#45800;&#44228;"><rect fill="none" height="113.6589" rx="3.2552" ry="3.2552" style="stroke:#181818;stroke-width:1.3020833333333333;" width="158.8542" x="169.2708" y="308.4505"/><text fill="#000000" font-family="sans-serif" font-size="18.2292" font-weight="bold" lengthAdjust="spacing" textLength="74.2188" x="211.5885" y="327.9754">&#54788;&#51116; &#45800;&#44228;</text></g><!--entity s4_y--><g id="elem_s4_y"><rect fill="#F1F1F1" height="47.2616" rx="3.2552" ry="3.2552" style="stroke:#181818;stroke-width:0.6510416666666666;" width="179.6875" x="29.9479" y="209.1016"/><text fill="#000000" font-family="sans-serif" font-size="18.2292" font-weight="bold" lengthAdjust="spacing" textLength="153.6458" x="42.9688" y="239.0431">&#51452;&#54665; &#49549;&#46020; PID &#51312;&#50984;</text></g><!--entity s4_n--><g id="elem_s4_n"><rect fill="#F1F1F1" height="47.2616" rx="3.2552" ry="3.2552" style="stroke:#181818;stroke-width:0.6510416666666666;" width="191.4063" x="283.2031" y="209.1016"/><text fill="#000000" font-family="sans-serif" font-size="18.2292" font-weight="bold" lengthAdjust="spacing" textLength="165.3646" x="296.224" y="239.0431">&#51452;&#54665; &#54588;&#46300;&#54252;&#50892;&#46300; &#51312;&#50984;</text></g><!--entity s5--><g id="elem_s5"><rect fill="#F1F1F1" height="47.2616" rx="3.2552" ry="3.2552" style="stroke:#181818;stroke-width:0.6510416666666666;" width="117.1875" x="190.1042" y="354.0234"/><text fill="#000000" font-family="sans-serif" font-size="18.2292" font-weight="bold" lengthAdjust="spacing" textLength="91.1458" x="203.125" y="383.965">&#51649;&#51652; &#53580;&#49828;&#53944;</text></g><!--entity s3--><g id="elem_s3"><rect fill="#F1F1F1" height="47.2616" rx="3.2552" ry="3.2552" style="stroke:#181818;stroke-width:0.6510416666666666;" width="201.8229" x="147.7865" y="95.4297"/><text fill="#000000" font-family="sans-serif" font-size="18.2292" font-weight="bold" lengthAdjust="spacing" textLength="175.7813" x="160.8073" y="125.3712">&#47196;&#52972;&#46972;&#51060;&#51228;&#51060;&#49496; &#53580;&#49828;&#53944;</text></g><!--entity s2--><g id="elem_s2"><rect fill="#F1F1F1" height="47.2616" rx="3.2552" ry="3.2552" style="stroke:#181818;stroke-width:0.6510416666666666;" width="123.6979" x="186.849" y="9.1146"/><text fill="#000000" font-family="sans-serif" font-size="18.2292" font-weight="bold" lengthAdjust="spacing" textLength="97.6563" x="199.8698" y="39.0561">&#45936;&#46300; &#55072; &#49444;&#51221;</text></g><!--entity s6--><g id="elem_s6"><rect fill="#F1F1F1" height="47.2616" rx="3.2552" ry="3.2552" style="stroke:#181818;stroke-width:0.6510416666666666;" width="123.6979" x="186.849" y="442.9427"/><text fill="#000000" font-family="sans-serif" font-size="18.2292" font-weight="bold" lengthAdjust="spacing" textLength="97.6563" x="199.8698" y="472.8843">&#44221;&#47196; &#54253; &#51312;&#50984;</text></g><!--link s2 to s3--><g id="link_s2_s3"><path d="M248.6979,56.9141 C248.6979,68.737 248.6979,75.2865 248.6979,87.0964 " fill="none" id="s2-to-s3" style="stroke:#181818;stroke-width:1.3020833333333333;"/><polygon fill="#181818" points="248.6979,94.9089,253.9062,83.1901,248.6979,88.3984,243.4896,83.1901,248.6979,94.9089" style="stroke:#181818;stroke-width:1.3020833333333333;"/></g><!--link s3 to s4_y--><g id="link_s3_s4_y"><path d="M222.6172,142.8385 C200.3906,161.9792 174.5393,184.2635 152.1955,203.5083 " fill="none" id="s3-to-s4_y" style="stroke:#181818;stroke-width:1.3020833333333333;"/><polygon fill="#181818" points="146.276,208.6068,158.5543,204.9054,151.209,204.358,151.7563,197.0127,146.276,208.6068" style="stroke:#181818;stroke-width:1.3020833333333333;"/></g><!--link s3 to s4_n--><g id="link_s3_s4_n"><path d="M275.0521,142.8385 C297.487,161.9792 323.6535,184.2907 346.2056,203.5355 " fill="none" id="s3-to-s4_n" style="stroke:#181818;stroke-width:1.3020833333333333;"/><polygon fill="#181818" points="352.1484,208.6068,346.6151,197.0379,347.1961,204.3807,339.8533,204.9617,352.1484,208.6068" style="stroke:#181818;stroke-width:1.3020833333333333;"/></g><!--link s4_y to s5--><g id="link_s4_y_s5"><path d="M140.5078,256.901 C164.5573,283.4505 198.7672,321.2135 222.7906,347.75 " fill="none" id="s4_y-to-s5" style="stroke:#181818;stroke-width:1.3020833333333333;"/><polygon fill="#181818" points="228.0339,353.5417,224.0302,341.3586,223.6645,348.7153,216.3079,348.3496,228.0339,353.5417" style="stroke:#181818;stroke-width:1.3020833333333333;"/></g><!--link s4_n to s5--><g id="link_s4_n_s5"><path d="M357.9818,256.901 C333.6849,283.4505 299.1138,321.2403 274.843,347.7768 " fill="none" id="s4_n-to-s5" style="stroke:#181818;stroke-width:1.3020833333333333;"/><polygon fill="#181818" points="269.5703,353.5417,281.3226,348.4095,273.9642,348.7376,273.6361,341.3792,269.5703,353.5417" style="stroke:#181818;stroke-width:1.3020833333333333;"/></g><!--link s5 to s6--><g id="link_s5_s6"><path d="M248.6979,401.6276 C248.6979,414.2188 248.6979,422.0182 248.6979,434.6354 " fill="none" id="s5-to-s6" style="stroke:#181818;stroke-width:1.3020833333333333;"/><polygon fill="#181818" points="248.6979,442.4479,253.9062,430.7292,248.6979,435.9375,243.4896,430.7292,248.6979,442.4479" style="stroke:#181818;stroke-width:1.3020833333333333;"/></g><!--SRC=[XP31IiD048Rl-nH3JisXg8dfgUJanPjl8Aa6ATKbPBs8U51ImTgGWr6Bff9YeIr4BEgXOFf2tTbtS8FLchJWPU0R_lrsPbYZJXtBjOx0jMY3sGxewuJzDlUTEcne1Y6klNTiqOD36vHgpUIz23yJtasn-u5nbDLc1qIpZQs-Q4sgQpLJ0Oi1quiF_J6_YK14CQ3Nn_Xs4TN-Hl4-n6d8_H3m8i67aGAdK53XSohkhW0lVHvuiBEz1TWROpHS63TtJyZPQYj_dVmd5c4gHnL1We_jREPbEytRHSV3fmJuzN3sxablKJiunu6twaX6tYEpixUfF368u6NfsmeX9QQfK2wRK6AwIh8o9xbmWMd6MNlUCRwPvjZueOhw1G00]--></g></svg>