<?xml version="1.0" encoding="us-ascii" standalone="no"?><svg xmlns="http://www.w3.org/2000/svg" xmlns:xlink="http://www.w3.org/1999/xlink" contentStyleType="text/css" height="927.0833px" preserveAspectRatio="none" style="width:433px;height:927px;background:#FFFFFF;" version="1.1" viewBox="0 0 433 927" width="433.5938px" zoomAndPan="magnify"><defs/><g><!--entity s1--><g id="elem_s1"><rect fill="#F1F1F1" height="47.2616" rx="3.2552" ry="3.2552" style="stroke:#181818;stroke-width:0.6510416666666666;" width="174.4792" x="127.6042" y="9.1146"/><text fill="#000000" font-family="sans-serif" font-size="18.2292" font-weight="bold" lengthAdjust="spacing" textLength="148.4375" x="140.625" y="39.0561">&#46300;&#46972;&#51060;&#48652; &#49345;&#49688; &#49444;&#51221;</text></g><!--entity s2--><g id="elem_s2"><rect fill="#F1F1F1" height="47.2616" rx="3.2552" ry="3.2552" style="stroke:#181818;stroke-width:0.6510416666666666;" width="123.6979" x="152.9948" y="95.4427"/><text fill="#000000" font-family="sans-serif" font-size="18.2292" font-weight="bold" lengthAdjust="spacing" textLength="97.6563" x="166.0156" y="125.3843">&#45936;&#46300; &#55072; &#49444;&#51221;</text></g><!--entity s3--><g id="elem_s3"><rect fill="#F1F1F1" height="47.2616" rx="3.2552" ry="3.2552" style="stroke:#181818;stroke-width:0.6510416666666666;" width="201.8229" x="113.9323" y="181.7708"/><text fill="#000000" font-family="sans-serif" font-size="18.2292" font-weight="bold" lengthAdjust="spacing" textLength="175.7813" x="126.9531" y="211.7124">&#47196;&#52972;&#46972;&#51060;&#51228;&#51060;&#49496; &#53580;&#49828;&#53944;</text></g><!--entity s4_y--><g id="elem_s4_y"><rect fill="#F1F1F1" height="47.2616" rx="3.2552" ry="3.2552" style="stroke:#181818;stroke-width:0.6510416666666666;" width="179.6875" x="9.1146" y="268.099"/><text fill="#000000" font-family="sans-serif" font-size="18.2292" font-weight="bold" lengthAdjust="spacing" textLength="153.6458" x="22.1354" y="298.0405">&#51452;&#54665; &#49549;&#46020; PID &#51312;&#50984;</text></g><!--entity s4_n--><g id="elem_s4_n"><rect fill="#F1F1F1" height="47.2616" rx="3.2552" ry="3.2552" style="stroke:#181818;stroke-width:0.6510416666666666;" width="191.4063" x="235.026" y="268.099"/><text fill="#000000" font-family="sans-serif" font-size="18.2292" font-weight="bold" lengthAdjust="spacing" textLength="165.3646" x="248.0469" y="298.0405">&#51452;&#54665; &#54588;&#46300;&#54252;&#50892;&#46300; &#51312;&#50984;</text></g><!--entity s5--><g id="elem_s5"><rect fill="#F1F1F1" height="47.2616" rx="3.2552" ry="3.2552" style="stroke:#181818;stroke-width:0.6510416666666666;" width="117.1875" x="156.25" y="354.4141"/><text fill="#000000" font-family="sans-serif" font-size="18.2292" font-weight="bold" lengthAdjust="spacing" textLength="91.1458" x="169.2708" y="384.3556">&#51649;&#51652; &#53580;&#49828;&#53944;</text></g><!--entity s6--><g id="elem_s6"><rect fill="#F1F1F1" height="47.2616" rx="3.2552" ry="3.2552" style="stroke:#181818;stroke-width:0.6510416666666666;" width="123.6979" x="152.9948" y="440.7422"/><text fill="#000000" font-family="sans-serif" font-size="18.2292" font-weight="bold" lengthAdjust="spacing" textLength="97.6563" x="166.0156" y="470.6837">&#44221;&#47196; &#54253; &#51312;&#50984;</text></g><!--entity s7--><g id="elem_s7"><rect fill="#F1F1F1" height="47.2616" rx="3.2552" ry="3.2552" style="stroke:#181818;stroke-width:0.6510416666666666;" width="117.1875" x="156.25" y="527.0703"/><text fill="#000000" font-family="sans-serif" font-size="18.2292" font-weight="bold" lengthAdjust="spacing" textLength="91.1458" x="169.2708" y="557.0119">&#54924;&#51204; &#53580;&#49828;&#53944;</text></g><!--entity s8--><g id="elem_s8"><rect fill="#F1F1F1" height="47.2616" rx="3.2552" ry="3.2552" style="stroke:#181818;stroke-width:0.6510416666666666;" width="201.8229" x="113.9323" y="613.3854"/><text fill="#000000" font-family="sans-serif" font-size="18.2292" font-weight="bold" lengthAdjust="spacing" textLength="175.7813" x="126.9531" y="643.327">&#47196;&#52972;&#46972;&#51060;&#51228;&#51060;&#49496; &#53580;&#49828;&#53944;</text></g><!--entity s9--><g id="elem_s9"><rect fill="#F1F1F1" height="47.2616" rx="3.2552" ry="3.2552" style="stroke:#181818;stroke-width:0.6510416666666666;" width="156.25" x="136.7188" y="699.7135"/><text fill="#000000" font-family="sans-serif" font-size="18.2292" font-weight="bold" lengthAdjust="spacing" textLength="130.2083" x="149.7396" y="729.6551">&#54036;&#47196;&#50892; PID &#51312;&#50984;</text></g><!--entity s10--><g id="elem_s10"><rect fill="#F1F1F1" height="47.2616" rx="3.2552" ry="3.2552" style="stroke:#181818;stroke-width:0.6510416666666666;" width="151.0417" x="139.3229" y="786.0417"/><text fill="#000000" font-family="sans-serif" font-size="18.2292" font-weight="bold" lengthAdjust="spacing" textLength="125" x="152.3438" y="815.9832">&#49828;&#54540;&#46972;&#51064; &#53580;&#49828;&#53944;</text></g><!--entity s11--><g id="elem_s11"><rect fill="#F1F1F1" height="47.2616" rx="3.2552" ry="3.2552" style="stroke:#181818;stroke-width:0.6510416666666666;" width="59.8958" x="184.8958" y="872.3568"/><text fill="#000000" font-family="sans-serif" font-size="18.2292" font-weight="bold" lengthAdjust="spacing" textLength="33.8542" x="197.9167" y="902.2983">&#50756;&#47308;</text></g><!--link s1 to s2--><g id="link_s1_s2"><path d="M214.8438,56.9271 C214.8438,68.737 214.8438,75.2995 214.8438,87.1094 " fill="none" id="s1-to-s2" style="stroke:#181818;stroke-width:1.3020833333333333;"/><polygon fill="#181818" points="214.8438,94.9219,220.0521,83.2031,214.8438,88.4115,209.6354,83.2031,214.8438,94.9219" style="stroke:#181818;stroke-width:1.3020833333333333;"/></g><!--link s2 to s3--><g id="link_s2_s3"><path d="M214.8438,143.2552 C214.8438,155.0651 214.8438,161.6276 214.8438,173.4375 " fill="none" id="s2-to-s3" style="stroke:#181818;stroke-width:1.3020833333333333;"/><polygon fill="#181818" points="214.8438,181.25,220.0521,169.5312,214.8438,174.7396,209.6354,169.5312,214.8438,181.25" style="stroke:#181818;stroke-width:1.3020833333333333;"/></g><!--link s3 to s4_y--><g id="link_s3_s4_y"><path d="M183.1771,229.5833 C166.8229,241.3932 153.2591,251.1921 136.9179,263.002 " fill="none" id="s3-to-s4_y" style="stroke:#181818;stroke-width:1.3020833333333333;"/><polygon fill="#181818" points="130.5859,267.5781,143.1347,264.9352,135.8626,263.7646,137.0331,256.4926,130.5859,267.5781" style="stroke:#181818;stroke-width:1.3020833333333333;"/></g><!--link s3 to s4_n--><g id="link_s3_s4_n"><path d="M246.5104,229.5833 C262.8646,241.3932 276.4284,251.1921 292.7696,263.002 " fill="none" id="s3-to-s4_n" style="stroke:#181818;stroke-width:1.3020833333333333;"/><polygon fill="#181818" points="299.1016,267.5781,292.6544,256.4926,293.8249,263.7646,286.5528,264.9352,299.1016,267.5781" style="stroke:#181818;stroke-width:1.3020833333333333;"/></g><!--link s4_y to s5--><g id="link_s4_y_s5"><path d="M130.625,315.8984 C146.9792,327.7214 160.543,337.5072 176.8842,349.3171 " fill="none" id="s4_y-to-s5" style="stroke:#181818;stroke-width:1.3020833333333333;"/><polygon fill="#181818" points="183.2161,353.8932,176.769,342.8077,177.9395,350.0798,170.6674,351.2503,183.2161,353.8932" style="stroke:#181818;stroke-width:1.3020833333333333;"/></g><!--link s4_n to s5--><g id="link_s4_n_s5"><path d="M299.0625,315.8984 C282.7083,327.7214 269.1445,337.5072 252.8033,349.3171 " fill="none" id="s4_n-to-s5" style="stroke:#181818;stroke-width:1.3020833333333333;"/><polygon fill="#181818" points="246.4714,353.8932,259.0201,351.2503,251.748,350.0798,252.9185,342.8077,246.4714,353.8932" style="stroke:#181818;stroke-width:1.3020833333333333;"/></g><!--link s5 to s6--><g id="link_s5_s6"><path d="M214.8438,402.2266 C214.8438,414.0365 214.8438,420.599 214.8438,432.4089 " fill="none" id="s5-to-s6" style="stroke:#181818;stroke-width:1.3020833333333333;"/><polygon fill="#181818" points="214.8438,440.2214,220.0521,428.5026,214.8438,433.7109,209.6354,428.5026,214.8438,440.2214" style="stroke:#181818;stroke-width:1.3020833333333333;"/></g><!--link s6 to s7--><g id="link_s6_s7"><path d="M214.8438,488.5547 C214.8438,500.3646 214.8438,506.9271 214.8438,518.737 " fill="none" id="s6-to-s7" style="stroke:#181818;stroke-width:1.3020833333333333;"/><polygon fill="#181818" points="214.8438,526.5495,220.0521,514.8307,214.8438,520.0391,209.6354,514.8307,214.8438,526.5495" style="stroke:#181818;stroke-width:1.3020833333333333;"/></g><!--link s7 to s8--><g id="link_s7_s8"><path d="M214.8438,574.8698 C214.8438,586.6927 214.8438,593.2422 214.8438,605.0521 " fill="none" id="s7-to-s8" style="stroke:#181818;stroke-width:1.3020833333333333;"/><polygon fill="#181818" points="214.8438,612.8646,220.0521,601.1458,214.8438,606.3542,209.6354,601.1458,214.8438,612.8646" style="stroke:#181818;stroke-width:1.3020833333333333;"/></g><!--link s8 to s9--><g id="link_s8_s9"><path d="M214.8438,661.1979 C214.8438,673.0078 214.8438,679.5703 214.8438,691.3802 " fill="none" id="s8-to-s9" style="stroke:#181818;stroke-width:1.3020833333333333;"/><polygon fill="#181818" points="214.8438,699.1927,220.0521,687.474,214.8438,692.6823,209.6354,687.474,214.8438,699.1927" style="stroke:#181818;stroke-width:1.3020833333333333;"/></g><!--link s9 to s10--><g id="link_s9_s10"><path d="M214.8438,747.526 C214.8438,759.3359 214.8438,765.8984 214.8438,777.7083 " fill="none" id="s9-to-s10" style="stroke:#181818;stroke-width:1.3020833333333333;"/><polygon fill="#181818" points="214.8438,785.5208,220.0521,773.8021,214.8438,779.0104,209.6354,773.8021,214.8438,785.5208" style="stroke:#181818;stroke-width:1.3020833333333333;"/></g><!--link s10 to s11--><g id="link_s10_s11"><path d="M214.8438,833.8411 C214.8438,845.6641 214.8438,852.2135 214.8438,864.0234 " fill="none" id="s10-to-s11" style="stroke:#181818;stroke-width:1.3020833333333333;"/><polygon fill="#181818" points="214.8438,871.8359,220.0521,860.1172,214.8438,865.3255,209.6354,860.1172,214.8438,871.8359" style="stroke:#181818;stroke-width:1.3020833333333333;"/></g><!--SRC=[dP6zQi9G583tFCN1IGUfCOq_84AXIxSEtKkqgGJZ9PWi7QMnj7B5eRRO6Y6YO0SBKZe8jI_KdFiEpQscsckcBWU-m_dEpxrstI2MrjGQqDH8tTOjK3AI_Pkyi0oGi-fEnjAgTQscdncEgH-PHeqqTEA0gLywajJKguv6QgOEYLAb7DnxmMY5e_TWIG6lMtWx07Idw3-K3Yhb16WssBBeT1UX1ippzqgpOkdOmu_vUWBw7e_j0R0snSwKTPPRKH54dApOuntWJJVekN1wSWmuNg3tiZKEpw_Y7TPVXUkntXo7bE-vBn9HdBLmviQjfGgLNs-VuKd0UgzxRND2ANkcwCSspV_taGhY2Dhdxf36Fb1Hl3BirgS_OvPntUMCA3ovmOJk5CYIbBJb5AJJPKZQsPJ4muOKJaf4uUS8J3Zpz2QZhfdyOJMY7ATSH7bE-OWAd0eH5JaL8v8p7CCOiPpw1W00]--></g></svg>