<?xml version="1.0" encoding="us-ascii" standalone="no"?><svg xmlns="http://www.w3.org/2000/svg" xmlns:xlink="http://www.w3.org/1999/xlink" contentStyleType="text/css" height="486.9792px" preserveAspectRatio="none" style="width:503px;height:486px;background:#FFFFFF;" version="1.1" viewBox="0 0 503 486" width="503.9062px" zoomAndPan="magnify"><defs/><g><!--cluster ??? ??--><g id="cluster_&#50644;&#53076;&#45908; &#49324;&#50857;"><rect fill="none" height="113.6589" rx="3.2552" ry="3.2552" style="stroke:#181818;stroke-width:1.3020833333333333;" width="221.3542" x="9.1146" y="9.1146"/><text fill="#000000" font-family="sans-serif" font-size="18.2292" font-weight="bold" lengthAdjust="spacing" textLength="91.1458" x="74.2188" y="28.6395">&#50644;&#53076;&#45908; &#49324;&#50857;</text></g><!--cluster ??? ???--><g id="cluster_&#50644;&#53076;&#45908; &#48120;&#49324;&#50857;"><rect fill="none" height="113.6589" rx="3.2552" ry="3.2552" style="stroke:#181818;stroke-width:1.3020833333333333;" width="234.375" x="261.7188" y="9.1146"/><text fill="#000000" font-family="sans-serif" font-size="18.2292" font-weight="bold" lengthAdjust="spacing" textLength="108.0729" x="324.8698" y="28.6395">&#50644;&#53076;&#45908; &#48120;&#49324;&#50857;</text></g><!--cluster ?? ??--><g id="cluster_&#54788;&#51116; &#45800;&#44228;"><rect fill="none" height="113.6589" rx="3.2552" ry="3.2552" style="stroke:#181818;stroke-width:1.3020833333333333;" width="158.8542" x="169.2708" y="298.0339"/><text fill="#000000" font-family="sans-serif" font-size="18.2292" font-weight="bold" lengthAdjust="spacing" textLength="74.2188" x="211.5885" y="317.5587">&#54788;&#51116; &#45800;&#44228;</text></g><!--entity s4_y--><g id="elem_s4_y"><rect fill="#F1F1F1" height="47.2616" rx="3.2552" ry="3.2552" style="stroke:#181818;stroke-width:0.6510416666666666;" width="179.6875" x="29.9479" y="54.6875"/><text fill="#000000" font-family="sans-serif" font-size="18.2292" font-weight="bold" lengthAdjust="spacing" textLength="153.6458" x="42.9688" y="84.6291">&#51452;&#54665; &#49549;&#46020; PID &#51312;&#50984;</text></g><!--entity s4_n--><g id="elem_s4_n"><rect fill="#F1F1F1" height="47.2616" rx="3.2552" ry="3.2552" style="stroke:#181818;stroke-width:0.6510416666666666;" width="191.4063" x="283.2031" y="54.6875"/><text fill="#000000" font-family="sans-serif" font-size="18.2292" font-weight="bold" lengthAdjust="spacing" textLength="165.3646" x="296.224" y="84.6291">&#51452;&#54665; &#54588;&#46300;&#54252;&#50892;&#46300; &#51312;&#50984;</text></g><!--entity s7--><g id="elem_s7"><rect fill="#F1F1F1" height="47.2616" rx="3.2552" ry="3.2552" style="stroke:#181818;stroke-width:0.6510416666666666;" width="117.1875" x="190.1042" y="343.6068"/><text fill="#000000" font-family="sans-serif" font-size="18.2292" font-weight="bold" lengthAdjust="spacing" textLength="91.1458" x="203.125" y="373.5483">&#54924;&#51204; &#53580;&#49828;&#53944;</text></g><!--entity s5--><g id="elem_s5"><rect fill="#F1F1F1" height="47.2616" rx="3.2552" ry="3.2552" style="stroke:#181818;stroke-width:0.6510416666666666;" width="117.1875" x="190.1042" y="143.6068"/><text fill="#000000" font-family="sans-serif" font-size="18.2292" font-weight="bold" lengthAdjust="spacing" textLength="91.1458" x="203.125" y="173.5483">&#51649;&#51652; &#53580;&#49828;&#53944;</text></g><!--entity s6--><g id="elem_s6"><rect fill="#F1F1F1" height="47.2616" rx="3.2552" ry="3.2552" style="stroke:#181818;stroke-width:0.6510416666666666;" width="123.6979" x="186.849" y="229.9349"/><text fill="#000000" font-family="sans-serif" font-size="18.2292" font-weight="bold" lengthAdjust="spacing" textLength="97.6563" x="199.8698" y="259.8765">&#44221;&#47196; &#54253; &#51312;&#50984;</text></g><!--entity s8--><g id="elem_s8"><rect fill="#F1F1F1" height="47.2616" rx="3.2552" ry="3.2552" style="stroke:#181818;stroke-width:0.6510416666666666;" width="201.8229" x="147.7865" y="432.526"/><text fill="#000000" font-family="sans-serif" font-size="18.2292" font-weight="bold" lengthAdjust="spacing" textLength="175.7813" x="160.8073" y="462.4676">&#47196;&#52972;&#46972;&#51060;&#51228;&#51060;&#49496; &#53580;&#49828;&#53944;</text></g><!--link s4_y to s5--><g id="link_s4_y_s5"><path d="M153.9974,102.526 C172.7995,115.1042 189.5387,126.3149 208.2887,138.88 " fill="none" id="s4_y-to-s5" style="stroke:#181818;stroke-width:1.3020833333333333;"/><polygon fill="#181818" points="214.7786,143.2292,207.9431,132.3787,209.3703,139.6048,202.1442,141.032,214.7786,143.2292" style="stroke:#181818;stroke-width:1.3020833333333333;"/></g><!--link s4_n to s5--><g id="link_s4_n_s5"><path d="M344.349,102.526 C325.3646,115.1042 308.4117,126.346 289.4664,138.9111 " fill="none" id="s4_n-to-s5" style="stroke:#181818;stroke-width:1.3020833333333333;"/><polygon fill="#181818" points="282.9557,143.2292,295.6005,141.0925,288.3813,139.6308,289.8431,132.4116,282.9557,143.2292" style="stroke:#181818;stroke-width:1.3020833333333333;"/></g><!--link s5 to s6--><g id="link_s5_s6"><path d="M248.6979,191.4193 C248.6979,203.2292 248.6979,209.7917 248.6979,221.6016 " fill="none" id="s5-to-s6" style="stroke:#181818;stroke-width:1.3020833333333333;"/><polygon fill="#181818" points="248.6979,229.4141,253.9062,217.6953,248.6979,222.9036,243.4896,217.6953,248.6979,229.4141" style="stroke:#181818;stroke-width:1.3020833333333333;"/></g><!--link s6 to s7--><g id="link_s6_s7"><path d="M248.6979,277.3438 C248.6979,296.4844 248.6979,316.0547 248.6979,335.2995 " fill="none" id="s6-to-s7" style="stroke:#181818;stroke-width:1.3020833333333333;"/><polygon fill="#181818" points="248.6979,343.112,253.9062,331.3932,248.6979,336.6016,243.4896,331.3932,248.6979,343.112" style="stroke:#181818;stroke-width:1.3020833333333333;"/></g><!--link s7 to s8--><g id="link_s7_s8"><path d="M248.6979,391.2109 C248.6979,403.8021 248.6979,411.6016 248.6979,424.2188 " fill="none" id="s7-to-s8" style="stroke:#181818;stroke-width:1.3020833333333333;"/><polygon fill="#181818" points="248.6979,432.0313,253.9062,420.3125,248.6979,425.5208,243.4896,420.3125,248.6979,432.0313" style="stroke:#181818;stroke-width:1.3020833333333333;"/></g><!--SRC=[AyxEp2j8B4hCLIXApCikJYrGC3RWAeOBfXHaAXWQcN8LfIQN9EQbvwGgABsPFkNDtYclUwSel6bQysRMIYM5QWLaUPiakpUBzxoTrgdmfgttTN-BGe2dYyARXHlUp5bXevzafwIGMAnGR19VoLMBtTJNwtSGClZjb3sl9yzvsx_cpUmU80EBwNcefeEqBczyixn5uMrhpvkk9M-xTY1KcwAfVBLfx-k5SnJUzg_5CDWCMUdR6IrlvgrHUDszujNc5g1ZqOnvEwldpGAi5ffZE0vetvlTQrxFtVDcxfOt2-Q0oDOPsBHQS75fW09FKq5Nrqv1ezXK4ypFG-6RmdXc89uPZ6SEufd3U1QQ0000]--></g></svg>