<?xml version="1.0" encoding="us-ascii" standalone="no"?><svg xmlns="http://www.w3.org/2000/svg" xmlns:xlink="http://www.w3.org/1999/xlink" contentStyleType="text/css" height="497.3958px" preserveAspectRatio="none" style="width:503px;height:497px;background:#FFFFFF;" version="1.1" viewBox="0 0 503 497" width="503.9062px" zoomAndPan="magnify"><defs/><g><!--cluster ??? ??--><g id="cluster_&#50644;&#53076;&#45908; &#49324;&#50857;"><rect fill="none" height="113.6719" rx="3.2552" ry="3.2552" style="stroke:#181818;stroke-width:1.3020833333333333;" width="221.3542" x="9.1146" y="77.2005"/><text fill="#000000" font-family="sans-serif" font-size="18.2292" font-weight="bold" lengthAdjust="spacing" textLength="91.1458" x="74.2188" y="96.7254">&#50644;&#53076;&#45908; &#49324;&#50857;</text></g><!--cluster ??? ???--><g id="cluster_&#50644;&#53076;&#45908; &#48120;&#49324;&#50857;"><rect fill="none" height="113.6719" rx="3.2552" ry="3.2552" style="stroke:#181818;stroke-width:1.3020833333333333;" width="234.375" x="261.7188" y="77.2005"/><text fill="#000000" font-family="sans-serif" font-size="18.2292" font-weight="bold" lengthAdjust="spacing" textLength="108.0729" x="324.8698" y="96.7254">&#50644;&#53076;&#45908; &#48120;&#49324;&#50857;</text></g><!--cluster ?? ??--><g id="cluster_&#54788;&#51116; &#45800;&#44228;"><rect fill="none" height="113.6719" rx="3.2552" ry="3.2552" style="stroke:#181818;stroke-width:1.3020833333333333;" width="158.8542" x="169.2708" y="222.1224"/><text fill="#000000" font-family="sans-serif" font-size="18.2292" font-weight="bold" lengthAdjust="spacing" textLength="74.2188" x="211.5885" y="241.6473">&#54788;&#51116; &#45800;&#44228;</text></g><!--entity s4_y--><g id="elem_s4_y"><rect fill="#F1F1F1" height="47.2616" rx="3.2552" ry="3.2552" style="stroke:#181818;stroke-width:0.6510416666666666;" width="179.6875" x="29.9479" y="122.7734"/><text fill="#000000" font-family="sans-serif" font-size="18.2292" font-weight="bold" lengthAdjust="spacing" textLength="153.6458" x="42.9688" y="152.715">&#51452;&#54665; &#49549;&#46020; PID &#51312;&#50984;</text></g><!--entity s4_n--><g id="elem_s4_n"><rect fill="#F1F1F1" height="47.2616" rx="3.2552" ry="3.2552" style="stroke:#181818;stroke-width:0.6510416666666666;" width="191.4063" x="283.2031" y="122.7734"/><text fill="#000000" font-family="sans-serif" font-size="18.2292" font-weight="bold" lengthAdjust="spacing" textLength="165.3646" x="296.224" y="152.715">&#51452;&#54665; &#54588;&#46300;&#54252;&#50892;&#46300; &#51312;&#50984;</text></g><!--entity s5--><g id="elem_s5"><rect fill="#F1F1F1" height="47.2616" rx="3.2552" ry="3.2552" style="stroke:#181818;stroke-width:0.6510416666666666;" width="117.1875" x="190.1042" y="267.6953"/><text fill="#000000" font-family="sans-serif" font-size="18.2292" font-weight="bold" lengthAdjust="spacing" textLength="91.1458" x="203.125" y="297.6369">&#51649;&#51652; &#53580;&#49828;&#53944;</text></g><!--entity s3--><g id="elem_s3"><rect fill="#F1F1F1" height="47.2616" rx="3.2552" ry="3.2552" style="stroke:#181818;stroke-width:0.6510416666666666;" width="201.8229" x="147.7865" y="9.1146"/><text fill="#000000" font-family="sans-serif" font-size="18.2292" font-weight="bold" lengthAdjust="spacing" textLength="175.7813" x="160.8073" y="39.0561">&#47196;&#52972;&#46972;&#51060;&#51228;&#51060;&#49496; &#53580;&#49828;&#53944;</text></g><!--entity s6--><g id="elem_s6"><rect fill="#F1F1F1" height="47.2616" rx="3.2552" ry="3.2552" style="stroke:#181818;stroke-width:0.6510416666666666;" width="123.6979" x="186.849" y="356.6276"/><text fill="#000000" font-family="sans-serif" font-size="18.2292" font-weight="bold" lengthAdjust="spacing" textLength="97.6563" x="199.8698" y="386.5692">&#44221;&#47196; &#54253; &#51312;&#50984;</text></g><!--entity s7--><g id="elem_s7"><rect fill="#F1F1F1" height="47.2616" rx="3.2552" ry="3.2552" style="stroke:#181818;stroke-width:0.6510416666666666;" width="117.1875" x="190.1042" y="442.9427"/><text fill="#000000" font-family="sans-serif" font-size="18.2292" font-weight="bold" lengthAdjust="spacing" textLength="91.1458" x="203.125" y="472.8843">&#54924;&#51204; &#53580;&#49828;&#53944;</text></g><!--link s3 to s4_y--><g id="link_s3_s4_y"><path d="M222.6172,56.5234 C200.3906,75.6641 174.541,97.9504 152.1972,117.1821 " fill="none" id="s3-to-s4_y" style="stroke:#181818;stroke-width:1.3020833333333333;"/><polygon fill="#181818" points="146.276,122.2786,158.5555,118.5813,151.2104,118.0315,151.7602,110.6864,146.276,122.2786" style="stroke:#181818;stroke-width:1.3020833333333333;"/></g><!--link s3 to s4_n--><g id="link_s3_s4_n"><path d="M275.0521,56.5234 C297.487,75.6641 323.6518,97.9776 346.2039,117.2093 " fill="none" id="s3-to-s4_n" style="stroke:#181818;stroke-width:1.3020833333333333;"/><polygon fill="#181818" points="352.1484,122.2786,346.6112,110.7117,347.1947,118.0542,339.8521,118.6377,352.1484,122.2786" style="stroke:#181818;stroke-width:1.3020833333333333;"/></g><!--link s4_y to s5--><g id="link_s4_y_s5"><path d="M140.5078,170.5729 C164.5573,197.1354 198.7672,234.8854 222.7906,261.4218 " fill="none" id="s4_y-to-s5" style="stroke:#181818;stroke-width:1.3020833333333333;"/><polygon fill="#181818" points="228.0339,267.2135,224.0302,255.0305,223.6645,262.3871,216.3079,262.0215,228.0339,267.2135" style="stroke:#181818;stroke-width:1.3020833333333333;"/></g><!--link s4_n to s5--><g id="link_s4_n_s5"><path d="M357.9818,170.5729 C333.6849,197.1354 299.1138,234.9122 274.843,261.4487 " fill="none" id="s4_n-to-s5" style="stroke:#181818;stroke-width:1.3020833333333333;"/><polygon fill="#181818" points="269.5703,267.2135,281.3226,262.0813,273.9642,262.4095,273.6361,255.0511,269.5703,267.2135" style="stroke:#181818;stroke-width:1.3020833333333333;"/></g><!--link s5 to s6--><g id="link_s5_s6"><path d="M248.6979,315.3125 C248.6979,327.8906 248.6979,335.7031 248.6979,348.3073 " fill="none" id="s5-to-s6" style="stroke:#181818;stroke-width:1.3020833333333333;"/><polygon fill="#181818" points="248.6979,356.1198,253.9062,344.401,248.6979,349.6094,243.4896,344.401,248.6979,356.1198" style="stroke:#181818;stroke-width:1.3020833333333333;"/></g><!--link s6 to s7--><g id="link_s6_s7"><path d="M248.6979,404.4271 C248.6979,416.25 248.6979,422.7995 248.6979,434.6094 " fill="none" id="s6-to-s7" style="stroke:#181818;stroke-width:1.3020833333333333;"/><polygon fill="#181818" points="248.6979,442.4219,253.9062,430.7031,248.6979,435.9115,243.4896,430.7031,248.6979,442.4219" style="stroke:#181818;stroke-width:1.3020833333333333;"/></g><!--SRC=[AyxEp2j8B4hCLIXApCikJYrGC3RWAeOBfXHaAXWQcN9n5QKcboJcfUUaAYZP9DczNZZdpUurh-VkUJDtovi5Sq1awmo5jwqzRxgMlEtQOQEVPAUaa5YiK6oChF7Dz2blzavvtJj5uKtJcZUpLYefL2kW6VncyPwtqpeLthJrlkvlKGZmT55uit33cpah42QQn5TorM8tzVNw7OGCVZjbp-l9SzxshtapkmV8m69w7ghfRsUql9ctHk5rzufNcrk0vg8RkxpnpV8MR3utHJK7gFRLfht0S5DusxyMmrepDALlP_MyMO3LM7CkBYwDOcDD1LrTEmKDK6XeelBpG7oGC5J45CBFG-6RmdXc89uPZ6Uk2G00]--></g></svg>